<?xml version="1.0" encoding="UTF-8"?>
<svg id="Layer_1" data-name="Layer 1" xmlns="http://www.w3.org/2000/svg" version="1.1" viewBox="0 0 2035 373">
  <defs>
    <style>
      .cls-1, .cls-2, .cls-3, .cls-4 {
        stroke-width: 0px;
      }

      .cls-1, .cls-3 {
        fill: #233775;
      }

      .cls-2 {
        fill: #d20823;
      }

      .cls-3, .cls-4 {
        fill-rule: evenodd;
      }

      .cls-4 {
        fill: #000;
      }
    </style>
  </defs>
  <path class="cls-3" d="M1792.6,246.9H617.7V23.1h1174.9v223.8h0ZM625.7,239.8l.2-209.2,1160-.3v209.3l-1160.2.2h0Z"/>
  <path class="cls-3" d="M802.6,209.7l-14-37.4h-69.7l-14.8,37.4h-7.8c0-.1,58.5-149.3,58.5-149.3l55.6,149.3h-7.8ZM785.8,164.9h-64l32.8-83.6,31.2,83.6Z"/>
  <path class="cls-3" d="M1174.2,138.8h-36.3v70.9h-7.5V60.4h52.2c21.6,0,39.2,17.5,39.2,39.2s-17.5,39.2-39.2,39.2h.3l40.6,70.7h-8.5l-40.6-70.8h-.2ZM1182.7,131.3h-44.8v-63.4h44.8c17.5,0,31.7,14.2,31.7,31.7s-14.2,31.7-31.7,31.7Z"/>
  <polygon class="cls-3" points="1082 209.6 996.2 209.6 996.2 60.4 1082 60.4 1082 60.4 1082 67.9 1003.7 67.9 1003.7 131.3 1044.7 131.4 1044.7 138.7 1003.7 138.7 1003.7 202.2 1082 202.1 1082 209.6"/>
  <polygon class="cls-3" points="1358 209.6 1272.2 209.6 1272.2 60.4 1279.7 60.4 1279.7 202.2 1358 202.2 1358 209.6"/>
  <path class="cls-3" d="M923.4,135c19.6-9.2,28-32.5,18.8-52.1-5.5-13.1-21.3-23.1-35.4-22.5h-52.2v149.2h52.2c21.6,0,39.2-17.5,39.2-39.2.5-14.1-9.5-29.9-22.6-35.4ZM906.7,131.3h-44.8v-63.4h44.8c17.5,0,31.7,14.2,31.7,31.7s-14.2,31.7-31.7,31.7ZM906.7,202.2c17.5,0,31.7-14.2,31.7-31.7s-14.2-31.7-31.7-31.7h-44.8v63.4h44.8Z"/>
  <polygon class="cls-3" points="1551.9 187.4 1458.7 60.4 1458.7 209.6 1466.2 209.6 1466.2 82.7 1559.4 209.5 1559.4 60.4 1551.9 60.4 1551.9 187.4"/>
  <polygon class="cls-3" points="1619.1 139.8 1703.5 60.1 1714.1 60.1 1647.5 122 1714.1 209.6 1704.7 209.6 1642.1 127.3 1642.2 127.3 1619.1 150.4 1619.1 209.6 1611.6 209.6 1611.6 60.4 1619.1 60.4 1619.1 139.8"/>
  <path class="cls-3" d="M1399,60.4"/>
  <rect class="cls-1" x="1392.2" y="60.4" width="7.5" height="149.2"/>
  <path class="cls-3" d="M1704.7,209.6"/>
  <path class="cls-4" d="M628.3,340.2h-10.6v-76h10.6v76Z"/>
  <path class="cls-4" d="M676.5,340.2h-10v-55.2h9v7.8c2.1-3,4.7-5.3,7.8-6.8s6.6-2.3,10.6-2.3,6,.5,8.6,1.4c2.6,1,4.8,2.2,6.4,3.7,1.6,1.5,2.8,3.5,3.6,6s1.2,6.2,1.2,11.3v33.9h-10v-33.6c0-4.1-.4-7-1.3-8.9-.9-1.9-2.3-3.3-4.1-4.3-1.9-1-4-1.5-6.5-1.5-4.7,0-8.4,1.4-11.2,4.1s-4.2,7.4-4.2,14.1v30.3h.1Z"/>
  <path class="cls-4" d="M759.7,340.2h-10v-55.2h9v7.8c2.1-3,4.7-5.3,7.8-6.8s6.6-2.3,10.6-2.3,6,.5,8.6,1.4c2.6,1,4.8,2.2,6.4,3.7s2.8,3.5,3.6,6,1.2,6.2,1.2,11.3v33.9h-10v-33.6c0-4.1-.4-7-1.3-8.9s-2.3-3.3-4.1-4.3c-1.9-1-4-1.5-6.5-1.5-4.7,0-8.4,1.4-11.2,4.1s-4.2,7.4-4.2,14.1v30.3h.1Z"/>
  <path class="cls-4" d="M839.3,312.6c0,7.2,1.7,12.5,5,16s7.5,5.2,12.4,5.2,8.6-1.8,11.9-5.3,5-8.8,5-15.9-1.7-12.4-5-15.9-7.5-5.2-12.4-5.2-8.7,1.8-12,5.3c-3.3,3.4-4.9,8.7-4.9,15.8ZM829,312.6c0-9.5,2.6-16.7,7.8-21.5s11.7-7.3,19.7-7.3,14.3,2.4,19.6,7.3c5.2,4.8,7.9,11.8,7.9,21s-2.6,17.3-7.7,22.1c-5.2,4.8-11.7,7.3-19.7,7.3s-14.4-2.4-19.6-7.3c-5.4-4.9-8-12.1-8-21.6Z"/>
  <path class="cls-4" d="M941.5,340.2h-9.2l-22.2-55h10.5l12.5,33c1.4,3.7,2.7,7.4,3.7,11.1.8-2.9,2.1-6.4,3.6-10.5l13-33.6h10.2l-22.1,55Z"/>
  <path class="cls-4" d="M1030,316v-3.4c-3.6,1.3-9,2.5-16.2,3.4-4.2.6-7.1,1.2-8.7,1.9-1.7.7-2.9,1.7-3.9,3-.9,1.3-1.4,2.8-1.4,4.5,0,2.6,1.1,4.8,3.2,6.3,2.1,1.6,5,2.4,8.7,2.4s6.8-.7,9.6-2.1c2.9-1.4,5.1-3.3,6.5-5.7,1.5-2.4,2.2-5.8,2.2-10.3h0ZM1030.7,333.4c-3.3,2.7-6.7,4.7-10.3,6-3.6,1.4-7.3,2-11.1,2-6.1,0-10.9-1.4-14.5-4.3-3.6-2.8-5.4-6.7-5.4-11.5s.9-6,2.6-8.5,4-4.4,7-5.8,7.4-2.4,13.5-3.1c8.1-.9,14-2,17.8-3.3v-2.4c0-3.8-.9-6.4-2.6-7.9-2.5-2.2-6.2-3.3-11.3-3.3s-8.1.7-10.3,2.2c-2.3,1.5-4,4.3-5,8.4l-9.7-1.2c1.4-5.9,4.2-10.3,8.4-13s10.3-4.1,18.2-4.1,10.9.9,14.4,2.7c3.5,1.8,5.7,4,6.6,6.6s1.4,6.5,1.4,11.5v12.5c0,8.7.2,14.2.6,16.5s1.2,4.5,2.4,6.6h-10.3c-1.5-1.7-2.1-4-2.4-6.6h0Z"/>
  <path class="cls-4" d="M1097.8,331.8l1.3,8.2c-2.7.5-5.2.8-7.4.8-3.5,0-6.3-.5-8.4-1.6s-3.6-2.5-4.4-4.3-1.2-5.5-1.2-10.9v-31.6h-7.1v-7.3h7.1v-13.6l10-5.6v19.2h10v7.3h-10v32.2c0,3,.3,4.9.9,5.8.9,1.2,2.4,1.9,4.8,1.9s2.6-.2,4.4-.5h0Z"/>
  <path class="cls-4" d="M1137.9,340.2h-10v-55h10v55ZM1137.9,274.9h-10v-10.9h10v10.9Z"/>
  <path class="cls-4" d="M1199,340.2h-9.2l-22.2-55h10.5l12.5,33c1.4,3.7,2.7,7.4,3.7,11.1.8-2.9,2.1-6.4,3.6-10.5l13-33.6h10.2l-22.1,55Z"/>
  <path class="cls-4" d="M1257.6,307.4h32.6c-.4-4.8-1.8-8.4-4-10.8-3.2-3.4-7.2-5.2-12.1-5.2s-8.2,1.4-11.3,4.3c-3.2,2.9-4.9,6.8-5.2,11.7ZM1290.1,322.4l10.2,1.2c-1.7,5.9-4.8,10.3-9.2,13.3s-10,4.5-16.5,4.5-15-2.4-20.1-7.3-7.7-11.9-7.7-21.1,2.6-16.8,7.7-21.8c5.2-5,11.7-7.5,19.6-7.5s13.9,2.5,18.9,7.4,7.6,12,7.6,21.3v2.5h-43.7c.4,6.2,2.3,10.9,5.6,14.1,3.3,3.2,7.3,4.7,12.1,4.7,7.4,0,12.6-3.7,15.5-11.3h0Z"/>
  <path class="cls-4" d="M1396.7,340.2h-10.3v-76h16.1l19.2,53.8,3.8,11.3c.9-2.8,2.4-6.9,4.3-12.2l19.3-52.9h14.4v76h-10.3v-63.6l-23.5,63.6h-9.6l-23.4-64.7v64.7Z"/>
  <path class="cls-4" d="M1507.1,307.4h32.6c-.4-4.8-1.8-8.4-4-10.8-3.2-3.4-7.2-5.2-12.1-5.2s-8.2,1.4-11.3,4.3c-3.2,2.9-4.9,6.8-5.2,11.7ZM1539.6,322.4l10.2,1.2c-1.7,5.9-4.8,10.3-9.2,13.3s-10,4.5-16.5,4.5-15-2.4-20.1-7.3-7.7-11.9-7.7-21.1,2.6-16.8,7.7-21.8c5.2-5,11.7-7.5,19.6-7.5s13.8,2.5,18.9,7.4,7.6,12,7.6,21.3v2.5h-43.7c.4,6.2,2.3,10.9,5.6,14.1,3.3,3.2,7.3,4.7,12.1,4.7,7.4,0,12.6-3.7,15.5-11.3h0Z"/>
  <path class="cls-4" d="M1604.8,331.8l1.3,8.2c-2.7.5-5.2.8-7.4.8-3.5,0-6.2-.5-8.4-1.6-2.1-1.1-3.6-2.5-4.4-4.3s-1.2-5.5-1.2-10.9v-31.6h-7.1v-7.3h7.1v-13.6l10-5.6v19.2h10v7.3h-10v32.2c0,3,.3,4.9.9,5.8.9,1.2,2.4,1.9,4.8,1.9s2.6-.2,4.4-.5h0Z"/>
  <path class="cls-4" d="M1644.6,340.2h-10v-55.2h9v8.4c2.3-3.9,4.3-6.4,6.2-7.7,1.9-1.3,4-1.9,6.4-1.9s6.6,1,10.1,3l-3.3,8.7c-2.4-1.5-4.8-2.2-7.1-2.2s-4,.6-5.7,1.7-2.9,2.7-3.7,4.8c-1.2,3.6-1.9,7.4-1.9,11.4v29h0Z"/>
  <path class="cls-4" d="M1699.2,312.6c0,7.2,1.7,12.5,5,16s7.5,5.2,12.4,5.2,8.6-1.8,11.9-5.3,5-8.8,5-15.9-1.7-12.4-5-15.9-7.5-5.2-12.4-5.2-8.7,1.8-12,5.3c-3.3,3.4-4.9,8.7-4.9,15.8ZM1688.9,312.6c0-9.5,2.6-16.7,7.8-21.5,5.2-4.8,11.7-7.3,19.7-7.3s14.3,2.4,19.6,7.3c5.3,4.8,7.9,11.8,7.9,21s-2.6,17.3-7.7,22.1c-5.2,4.8-11.7,7.3-19.7,7.3s-14.4-2.4-19.6-7.3c-5.4-4.9-8-12.1-8-21.6h0Z"/>
  <path class="cls-4" d="M1785.6,340.2h-10v-76h10v76Z"/>
  <path class="cls-4" d="M1827.9,312.6c0,7.2,1.7,12.5,5,16s7.5,5.2,12.4,5.2,8.6-1.8,11.9-5.3,5-8.8,5-15.9-1.7-12.4-5-15.9-7.5-5.2-12.4-5.2-8.7,1.8-12,5.3c-3.2,3.4-4.9,8.7-4.9,15.8ZM1817.7,312.6c0-9.5,2.6-16.7,7.8-21.5,5.2-4.8,11.7-7.3,19.7-7.3s14.3,2.4,19.6,7.3c5.2,4.8,7.9,11.8,7.9,21s-2.6,17.3-7.7,22.1c-5.2,4.8-11.7,7.3-19.7,7.3s-14.4-2.4-19.6-7.3c-5.4-4.9-8-12.1-8-21.6h0Z"/>
  <path class="cls-4" d="M1910.8,311.6c0,7.3,1.6,12.6,4.6,15.9,3.1,3.3,6.9,5,11.4,5s8.3-1.6,11.4-4.9,4.7-8.5,4.7-15.6-1.6-12.1-4.8-15.5c-3.2-3.4-7.1-5.1-11.8-5.1s-7.7,1.7-10.8,5.1c-3.2,3.4-4.7,8.4-4.7,15.1h0ZM1902.5,344.7l9.7,1.3c.4,2.9,1.8,5.1,4,6.6,2.2,1.4,5.4,2.2,9.4,2.2s7.8-.8,10.4-2.4,4.3-4,5.3-7.2c.6-1.9.9-6,.9-12.2-2.2,2.4-4.6,4.2-7.3,5.4-2.7,1.2-5.7,1.8-9,1.8-7,0-12.8-2.3-17.5-6.9-5.3-5.3-8-12.3-8-21.1s1.2-11.1,3.5-15.5,5.4-7.7,9.2-9.8c3.8-2.1,8.1-3.1,12.8-3.1s6.6.7,9.5,2,5.4,3.3,7.6,5.9v-6.7h9v47.6c0,8.5-.9,14.5-2.7,18.1-1.8,3.6-4.7,6.5-8.8,8.6-4.1,2.1-9,3.1-14.8,3.1s-13.4-1.6-17.5-4.7c-4-3-5.9-7.2-5.9-12.5.2-.1.2-.3.2-.5h0Z"/>
  <path class="cls-4" d="M1986.7,361.3l-1.1-8.7c2.2.6,4.1.9,5.6.9s3.8-.3,5.2-1c1.4-.7,2.5-1.7,3.4-3.1.3-.5,1.6-3.5,3.9-9.1l-22.2-55.2h10.7l12.2,31.9c1.5,4,2.9,8.2,4.2,12.7,1.1-4.3,2.5-8.5,4-12.5l12.5-32.1h9.9l-22.2,55.9c-2.9,7.2-5.2,12.1-6.9,14.5-1.7,2.4-3.6,4.2-5.7,5.3-2.1,1.1-4.5,1.6-7.2,1.6-1.8.1-3.9-.3-6.3-1.1h0Z"/>
  <path class="cls-1" d="M2003.1,134.8c.2.2.3.4.4.5,2.1,2,3.9,4.3,5.7,6.7,1.5,2,2.8,4.2,4,6.4,1,1.8,1.8,3.6,2.5,5.6.4,1.1.8,2.2,1.2,3.4.6,1.6,1,3.2,1.4,4.8.3,1.5.6,3,.8,4.5,0,.9.3,1.8.3,2.8s0,1.6.2,2.4v3.1c0,1.6,0,3.3-.2,4.9,0,1.5-.4,3-.6,4.5,0,1-.4,2-.6,2.9-.2,1-.4,2-.8,2.9-.4,1.1-.7,2.3-1.1,3.4-.5,1.4-1.1,2.8-1.7,4.1s-1.2,2.5-1.9,3.8c-.8,1.5-1.7,3-2.7,4.4-1.5,2.1-3,4.1-4.7,6-.9,1-1.8,1.9-2.7,2.8-1.7,1.6-3.4,3.2-5.3,4.6-.9.6-1.7,1.3-2.7,1.9-1.2.8-2.5,1.5-3.7,2.2-1.4.8-2.8,1.5-4.3,2.2-1.8.8-3.6,1.5-5.5,2.1-.4.1-.7.3-1.1.4-.9.3-1.8.6-2.7.8-1.2.3-2.3.5-3.5.8-1.4.3-2.8.4-4.2.7h-.2c-1.9.1-3.7.3-5.6.3s-3.3,0-4.9-.1c-.8,0-1.6-.1-2.4-.2-.7-.1-1.5-.2-2.2-.3-1.2-.2-2.4-.4-3.6-.6-1-.2-2.1-.5-3.1-.8-1.4-.3-2.7-.9-4-1.3-1.7-.6-3.3-1.3-4.9-2-2.2-1-4.4-2.2-6.5-3.5-1.6-1-3.2-2.2-4.7-3.3-1.3-1-2.6-2.1-3.8-3.3-.2-.2-.4-.4-.7-.6-.4-.3-.5-.3-.8,0-.4.4-.9.8-1.3,1.2-1.1,1-2.3,1.9-3.4,2.9-2.3,1.8-4.8,3.4-7.3,4.8-1.4.8-2.7,1.4-4.1,2.1-1.4.6-2.8,1.1-4.2,1.7-1.1.4-2.2.8-3.3,1.1-.8.3-1.7.5-2.6.7-1.2.3-2.5.6-3.7.8-.5.1-1,.2-1.5.2-1,.1-2.1.3-3.1.4-2.8.3-5.6.2-8.5.1-1.4,0-2.9-.1-4.3-.4-.8-.1-1.5-.2-2.3-.3-.5-.1-1-.2-1.5-.3-1-.2-2.1-.4-3.1-.7-1.2-.4-2.4-.6-3.6-1.1-.5-.2-1.1-.4-1.7-.6-1.3-.5-2.7-1-4-1.6-1.2-.5-2.3-1.1-3.4-1.7-2-1.1-4-2.3-5.9-3.6-1.7-1.2-3.4-2.5-5-3.9-1.1-.9-2-1.9-3-2.9-1.5-1.5-2.8-3.1-4.1-4.7-1.4-1.8-2.6-3.7-3.8-5.6-1.2-1.9-2.2-3.9-3.1-6-.8-1.9-1.6-3.8-2.2-5.8-.4-1.4-.8-2.8-1.1-4.2-.3-1.4-.6-2.8-.8-4.2,0-.8-.3-1.5-.3-2.3,0-1.3,0-2.6-.3-3.9v-3.3c0-1.6.2-3.2.3-4.8,0-1.4.4-2.8.6-4.2,0-.9.3-1.8.5-2.6.3-1.1.6-2.2.9-3.3.4-1.4.9-2.8,1.5-4.2.6-1.3,1.1-2.6,1.7-3.9.7-1.6,1.5-3.1,2.4-4.6,1.1-1.7,2.1-3.4,3.4-5s2.5-3.2,4-4.7c.4-.4.7-.7,1.1-1.1,0-.1.2-.2.2-.3,0-.4-.3-.5-.5-.7-.7-.7-1.4-1.4-2-2.1-.8-.9-1.5-1.8-2.2-2.7-1.5-1.8-2.7-3.7-3.9-5.6-1.3-2.1-2.4-4.4-3.4-6.6-.8-1.8-1.5-3.7-2.1-5.6-.3-.9-.5-1.8-.7-2.8-.3-1.1-.5-2.2-.7-3.3,0-.3,0-.7-.2-1-.3-1.7-.5-3.4-.6-5.1s-.3-3.3-.2-5c0-1.6.2-3.3.3-4.9,0-1.5.4-2.9.6-4.3.2-1.3.5-2.5.8-3.7.4-1.8,1-3.6,1.6-5.3.4-1,.8-2,1.2-3,.8-2,1.8-3.9,2.8-5.7,1-1.7,2.1-3.4,3.3-5.1,2.2-3,4.7-5.7,7.4-8.2,1.5-1.4,3-2.7,4.7-3.9,1.7-1.3,3.5-2.5,5.4-3.5,1.3-.7,2.6-1.4,3.9-2.1,1.2-.6,2.5-1.1,3.8-1.6,1.2-.5,2.4-.9,3.6-1.3.9-.3,1.8-.6,2.8-.9,1.2-.3,2.3-.5,3.5-.8,1.3-.3,2.6-.4,3.9-.6.8-.2,1.6-.2,2.4-.2,1.8,0,3.7-.3,5.5-.2,1.7,0,3.5.2,5.2.3,1.5,0,2.9.4,4.4.6,1,0,1.9.4,2.9.6.8.2,1.6.3,2.3.6,1.3.4,2.7.8,4,1.3,1.7.6,3.5,1.3,5.1,2.1,1.3.6,2.5,1.3,3.8,2,1.2.7,2.4,1.4,3.5,2.1,1.5,1,2.9,2.1,4.3,3.2,1.3,1,2.5,2.1,3.6,3.2,0,0,.2.2.3.3h.4c.2-.2.5-.4.7-.6,1.1-.9,2.1-1.9,3.2-2.8.9-.8,1.9-1.5,2.9-2.2,1.5-1.1,3.1-2.1,4.7-3,1.7-1,3.4-1.9,5.3-2.7,1-.4,2.1-.9,3.1-1.3,1.3-.5,2.6-.9,3.9-1.3.9-.3,1.9-.5,2.9-.8s2-.3,3-.6c.4,0,.7,0,1.1-.2,1.7-.2,3.4-.5,5.2-.6,1.5,0,3.1-.2,4.6-.2h2c1.6,0,3.1.2,4.7.3,1.1,0,2.1.3,3.2.5,1.4.3,2.9.6,4.3,1,1,.2,1.9.6,2.9.9,1.3.4,2.5.8,3.8,1.3,1.8.7,3.5,1.5,5.2,2.4,1.6.9,3.2,1.7,4.7,2.7,1.2.8,2.3,1.6,3.4,2.4,1.4,1,2.7,2.1,3.9,3.3.7.6,1.4,1.3,2.1,2,1.8,1.9,3.5,3.8,5.1,5.9,1.5,2,2.8,4.1,4,6.2,1,1.7,1.9,3.5,2.6,5.3s1.3,3.6,2,5.4c.6,1.7,1,3.4,1.3,5.1.3,1.2.4,2.4.6,3.7.2,1.1.3,2.2.3,3.3,0,1.8.2,3.5.2,5.3s0,3.7-.3,5.5c0,.8-.2,1.5-.3,2.3-.2,1.1-.4,2.3-.6,3.4-.3,1.4-.6,2.8-1.1,4.1-.4,1-.7,2.1-1,3.1-.5,1.4-1,2.7-1.7,4-1.3,2.7-2.8,5.3-4.4,7.8-.9,1.3-1.9,2.5-2.8,3.8-1.1,1.4-2.4,2.7-3.6,4-.8.1-1,.3-1.1.6h0ZM1981.9,113.8s.2.3.3.4c.4.4.8.8,1.2,1.2,1.1,1.1,2.2,2.1,3.3,3.2,1.7,1.7,3.4,3.4,5.2,5.1,1.1,1.1,2.2,2.1,3.2,3.2.8.7,1.5,1.5,2.3,2.2.3.3.4.3.7,0,.3-.3.7-.6,1-1,1.6-1.9,3.3-3.7,4.7-5.8,1.4-2.1,2.7-4.2,3.8-6.5,1.3-2.7,2.4-5.5,3.1-8.5.3-1.1.6-2.3.8-3.4.2-1.5.5-2.9.6-4.4s0-3,.2-4.5v-2.2c0-1.4-.2-2.8-.3-4.1-.2-1.3-.4-2.6-.7-3.9-.2-1-.4-2.1-.7-3.1-.5-1.6-1.1-3.2-1.7-4.7-1.3-3.4-3.1-6.6-5.2-9.6-.7-1-1.5-2-2.3-3-1-1.3-2.1-2.5-3.2-3.6-1.6-1.6-3.3-3-5-4.4-1.3-1-2.7-2-4.2-2.8-.8-.5-1.6-1-2.4-1.4-1.8-.9-3.6-1.8-5.5-2.5-1.5-.6-3-1.1-4.5-1.6-.6-.2-1.3-.4-1.9-.5-1.1-.2-2.3-.5-3.4-.7-.7,0-1.4-.2-2.1-.3-1.1,0-2.2-.2-3.4-.3h-3.2c-1.2,0-2.4,0-3.5.2-.9,0-1.7,0-2.6.3-1.3.2-2.6.4-3.9.7-1.8.4-3.6.9-5.3,1.4-.5.2-.9.3-1.4.5-1.3.5-2.7,1-4,1.6-1.4.6-2.7,1.4-4,2.1-2.5,1.5-4.9,3.2-7.1,5-1.4,1.1-2.6,2.4-3.9,3.7-1.3,1.2-2.5,2.5-3.8,3.8-1,1-2,2-3.1,3-1.3,1.3-2.6,2.5-3.9,3.8-1.7,1.7-3.4,3.4-5.1,5-1.2,1.2-2.4,2.4-3.6,3.6-1.4,1.4-2.8,2.8-4.2,4.1-1.3,1.3-2.5,2.5-3.8,3.8-1.1,1.1-2.1,2.1-3.2,3.1-1.6,1.6-3.2,3.2-4.8,4.7-1,1-1.9,2-2.9,2.9-1.6,1.5-3.1,3.1-4.7,4.6-1.3,1.2-2.5,2.5-3.8,3.8-1.3,1.2-2.6,2.5-3.8,3.7-.4.4-.8.8-1.2,1.2s-.3.3-.4.5c0,0,.2.3.3.3,1.8,1.8,3.6,3.6,5.4,5.3,1.6,1.6,3.3,3.2,4.9,4.8,1.7,1.7,3.4,3.4,5.1,5,0,.1.2.2.4.3,0-.1.2-.2.3-.3,1.9-1.8,3.8-3.7,5.6-5.5.9-.9,1.7-1.8,2.6-2.7,1.6-1.6,3.3-3.2,4.9-4.9,1.9-1.9,3.7-3.7,5.6-5.6.8-.8,1.6-1.5,2.4-2.3,1.3-1.3,2.5-2.6,3.8-3.9,1.2-1.2,2.5-2.5,3.8-3.7,1.1-1.1,2.3-2.3,3.4-3.5,1.5-1.5,3-2.9,4.5-4.4,1.7-1.7,3.4-3.4,5.1-5.2,1-1,2-1.9,3-2.9,1.8-1.8,3.6-3.6,5.4-5.4,1.1-1.1,2.3-2.3,3.5-3.4s2.5-2.1,3.9-3c.8-.5,1.6-1,2.4-1.4.9-.4,1.8-.8,2.7-1.2,1.3-.5,2.6-.9,4-1.1.8,0,1.5-.3,2.3-.4h1.9c2,0,4.1,0,6.1.4,1.3.2,2.6.6,3.9,1,2,.7,3.9,1.6,5.7,2.7,2,1.3,3.8,2.8,5.4,4.5,1.1,1.2,2,2.5,2.9,3.9,1.2,1.7,2,3.6,2.7,5.6.4,1.2.7,2.5,1,3.8,0,.8.3,1.7.3,2.5,0,1.9,0,3.8-.2,5.6-.2,1.5-.5,2.9-1,4.3-.5,1.6-1.1,3.1-1.9,4.5-1.1,2-2.4,3.8-3.9,5.4-.2.2-.4.4-.5.6-.3.8-.3.9-.3,1v-.3ZM1954.7,140.2c-.4,0-.5.3-.7.5-1.6,1.6-3.3,3.3-4.9,4.9-.9.9-1.9,1.9-2.8,2.8-1.4,1.4-2.8,2.7-4.2,4.1-.6.6-1.1,1.2-1.7,1.7-2,2-4,4-6,5.9-1.2,1.2-2.4,2.4-3.7,3.7-1.4,1.4-2.8,2.8-4.3,4.2l-6,6c-1.1,1.1-2.3,2.3-3.5,3.4-2,2-4.1,4-6.1,6.1-1.7,1.7-3.3,3.3-5,5-1.2,1.2-2.5,2.4-3.7,3.7-1,1-2,2-3.2,2.9-1,.8-2.1,1.6-3.2,2.2-1,.5-1.9,1-2.9,1.5-1.1.5-2.3.9-3.5,1.2-.8.2-1.7.4-2.5.6-.9.2-1.8.3-2.8.4h-2.6c-.9,0-1.8,0-2.6-.2-1-.1-1.9-.4-2.9-.6-1.4-.3-2.8-.7-4.1-1.3-1.6-.7-3.2-1.5-4.6-2.5-1.8-1.3-3.6-2.7-5.1-4.4-1.7-1.9-3.2-4-4.2-6.3-1-2.2-1.7-4.4-2.2-6.8,0-.6-.2-1.2-.2-1.8v-3.1c0-2,.3-4,.8-6,.2-.6.4-1.3.6-1.9.5-1.8,1.4-3.4,2.3-5.1,1-1.7,2.2-3.3,3.6-4.8.5-.6.6-.6,0-1.2-1.9-1.9-3.8-3.8-5.7-5.6-1.8-1.7-3.5-3.5-5.3-5.2-1-1-1.9-1.9-2.9-2.9-.4-.4-.8-.7-1.2-1.1-.2-.2-.4-.2-.6,0h0c-1,1-1.9,2.1-2.8,3.1-1.8,2.2-3.4,4.5-4.8,6.9-1,1.8-1.9,3.6-2.7,5.5-.9,2-1.6,4.2-2.1,6.3-.2,1-.5,1.9-.7,2.9-.2,1.4-.5,2.8-.6,4.2,0,1.6-.2,3.2-.4,4.8v.8c0,1.1,0,2.1.2,3.2,0,1,0,2,.3,2.9.3,1.9.6,3.9,1.2,5.8.4,1.4.8,2.8,1.3,4.2.5,1.3,1.1,2.6,1.7,3.9,1,2.1,2.1,4.2,3.4,6.1,1.4,2,2.8,4,4.5,5.8,1.2,1.3,2.4,2.6,3.7,3.7.8.6,1.5,1.3,2.2,1.9,1.5,1.2,3.1,2.3,4.7,3.3,1.5.9,3,1.8,4.6,2.5,1.1.5,2.3,1,3.5,1.5,1,.4,2.1.8,3.2,1.1,1.4.4,2.7.8,4.1,1.1,1.1.2,2.2.5,3.3.6,1.3.2,2.7.4,4,.4,2,.1,4,.2,6,0,1.5-.1,3.1-.2,4.6-.4.4-.1.9-.2,1.3-.2,1.2-.1,2.4-.4,3.6-.7s2.4-.6,3.6-1c.9-.3,1.8-.6,2.7-1,1-.4,2.1-.9,3.1-1.3,2.4-1.1,4.6-2.4,6.7-3.9,2.3-1.5,4.4-3.3,6.4-5.2.9-.9,1.8-1.8,2.7-2.6,2.3-2.3,4.6-4.6,6.9-6.9,1.2-1.2,2.4-2.4,3.6-3.5,1.4-1.4,2.9-2.8,4.3-4.3,1.7-1.7,3.4-3.4,5.1-5,1.3-1.2,2.5-2.5,3.8-3.7,2.3-2.3,4.6-4.6,6.9-6.9,1.7-1.7,3.4-3.3,5.1-5,1.2-1.2,2.4-2.4,3.6-3.6,1.1-1.1,2.2-2.2,3.3-3.3,1.6-1.6,3.2-3.1,4.8-4.7,1.2-1.2,2.4-2.3,3.6-3.4,0-.1.2-.3.3-.4v-.2c-5.3-4.9-10.6-10.1-15.9-15.3h-.3ZM1917,166.6c0-.2-.2-.3-.3-.4-.7-.7-1.3-1.4-2-2.1-1.1-1.1-2.1-2.1-3.2-3.2-1.5-1.4-3-2.9-4.5-4.3-1.1-1.1-2.3-2.3-3.4-3.4-1.6-1.5-3.2-3.1-4.8-4.6-1-1-2-2-3.1-3-1.8-1.7-3.6-3.5-5.4-5.2-.9-.9-1.7-1.7-2.6-2.6-1.1-1.1-2.3-2.2-3.5-3.3-1.5-1.5-3-3-4.6-4.5-1.1-1.1-2.3-2.2-3.4-3.3-1.6-1.5-3.1-3.1-4.7-4.6-2.7-2.6-5.4-5.3-8.1-7.9-.5-.5-1-.9-1.4-1.4-1.6-1.9-3.1-3.8-4.2-6.1-.8-1.7-1.5-3.4-1.9-5.2-.4-1.6-.7-3.3-.7-4.9v-3.4c0-1.4.3-2.8.6-4.2.3-1.3.7-2.6,1.3-3.8.5-1.2,1-2.3,1.6-3.4,1.7-2.9,3.9-5.5,6.7-7.5,1.6-1.2,3.3-2.3,5.2-3.2,1.3-.6,2.7-1.1,4.1-1.5.8-.2,1.6-.4,2.4-.6.7,0,1.4-.3,2.1-.3,2.3,0,4.7-.2,7,.2.8,0,1.5.3,2.3.4,1.6.4,3.2.9,4.7,1.6,1.8.8,3.4,1.8,5,3,.8.6,1.5,1.2,2.2,1.8.2,0,.3.4.7.3.2-.2.4-.4.6-.6,1.3-1.3,2.7-2.7,4-4,2.1-2.1,4.2-4.1,6.3-6.2,1.2-1.2,2.4-2.4,3.6-3.5.2-.2.5-.4.7-.7.3-.3.3-.4,0-.7s-.6-.6-1-.9c-.3-.3-.7-.6-1-.9-1.6-1.4-3.3-2.7-5.1-3.9-.9-.6-1.8-1.1-2.7-1.7-1-.6-2-1.2-3.1-1.7-1.3-.6-2.5-1.1-3.8-1.6-.9-.4-1.8-.7-2.8-1-1.6-.5-3.2-.9-4.9-1.2-.3,0-.6-.2-.9-.2-1.5-.2-3-.5-4.5-.6-2.3-.2-4.5-.3-6.8-.2-1.8,0-3.6.2-5.4.5-1.6.3-3.2.5-4.8,1-1.5.4-3.1.8-4.5,1.4h0c-1.8.6-3.5,1.4-5.3,2.2-1.5.7-2.9,1.6-4.3,2.4-1.7,1-3.3,2.2-4.8,3.4-.9.8-1.9,1.5-2.8,2.4-1.6,1.6-3.2,3.2-4.6,5-1.8,2.3-3.4,4.7-4.8,7.2-.9,1.7-1.8,3.5-2.5,5.3-.7,1.7-1.3,3.5-1.7,5.4-.3,1-.5,2.1-.7,3.1-.2,1.4-.5,2.7-.6,4.1,0,1.6-.3,3.3-.4,4.9v1.5c0,1.4.2,2.9.3,4.3,0,1.3.4,2.7.6,4,.3,1.5.7,3,1.2,4.5.7,2.4,1.6,4.7,2.7,6.9,1.1,2.2,2.3,4.4,3.7,6.4,1,1.4,2.1,2.8,3.2,4.2,1.1,1.3,2.4,2.5,3.6,3.7,2.7,2.7,5.5,5.4,8.2,8,2.8,2.8,5.7,5.6,8.5,8.4,2.3,2.3,4.7,4.6,7,7,3,2.9,5.9,5.9,8.9,8.8,2.6,2.6,5.2,5.1,7.8,7.7,2.5,2.4,4.9,4.9,7.4,7.3,1.2,1.2,2.4,2.4,3.6,3.6.4.4.7.7,1.1,1,.2.2.4.2.6,0,0-.1,0-.2.2-.2.8-.8,1.5-1.5,2.3-2.3l3-3c1.7-1.7,3.4-3.3,5.1-5,1.2-1.2,2.4-2.4,3.6-3.6.9-.3,1.4-.8,1.9-1.3h0ZM1927.9,102.9c0,.4.4.6.6.8,1.5,1.4,2.9,2.9,4.4,4.3.9.9,1.8,1.7,2.7,2.5,1.7,1.6,3.3,3.3,5,4.9,1.1,1.1,2.2,2.1,3.3,3.2,1.6,1.5,3.1,3.1,4.7,4.7,1.2,1.2,2.5,2.4,3.7,3.6,2.2,2.1,4.3,4.2,6.5,6.3,1.9,1.8,3.7,3.7,5.6,5.5,1.5,1.4,2.9,2.9,4.4,4.3,1.2,1.2,2.4,2.4,3.6,3.6,1.6,1.6,3.2,3.2,4.9,4.7,1.2,1.1,2.3,2.3,3.5,3.4,1,1,2.1,2,3,3.2,1.7,2.2,3.2,4.6,4.1,7.2.5,1.5,1,3,1.2,4.5.2,1.2.4,2.5.4,3.7,0,2,0,4-.4,5.9-.2,1.2-.5,2.4-.9,3.6-.4,1-.8,2.1-1.3,3.1-.5.9-1,1.9-1.6,2.8-.9,1.5-2.1,2.8-3.3,4.1-.5.5-1.1,1-1.7,1.5-.9.8-1.8,1.4-2.7,2.1-.8.6-1.7,1.1-2.6,1.6-1,.5-2.1.9-3.2,1.4-.6.3-1.3.4-2,.6-.7.2-1.5.4-2.2.5-.7.2-1.5.3-2.2.4-1.3.1-2.6.1-3.9.1s-2,0-3-.2c-.9-.2-1.8-.4-2.7-.6-1.8-.4-3.5-1.1-5.1-1.8-2.1-1-4-2.3-5.7-3.8-.4-.4-.9-.8-1.4-1.2-.2.1-.4.3-.5.4-1.6,1.5-3.2,3.1-4.7,4.6-1.2,1.2-2.5,2.4-3.7,3.6-2,2-4,3.9-6,5.9-.2.2-.4.5-.7.7-.2.2-.2.3,0,.5,0,.1.2.1.2.2,1.3,1.3,2.7,2.5,4.2,3.6,2.2,1.7,4.4,3.1,6.9,4.4,1.9,1,3.9,1.9,6,2.7,1.5.6,3,1,4.6,1.4,1.5.4,2.9.7,4.4.9,1.5.3,3.1.4,4.6.6,2.1.2,4.2.2,6.4.1,1.7-.1,3.3-.2,5-.5.8-.1,1.5-.2,2.3-.4,1-.2,2.1-.4,3.1-.7,1.3-.4,2.6-.7,3.8-1.2,1.3-.4,2.5-1,3.7-1.5,2.4-1,4.6-2.3,6.8-3.7,3.5-2.3,6.7-5,9.5-8.1,2.1-2.3,4-4.8,5.6-7.5.5-.9,1-1.8,1.5-2.7.8-1.5,1.5-3,2.1-4.6.6-1.5,1.1-3,1.5-4.5.4-1.6.8-3.2,1.1-4.9.3-2,.6-3.9.6-5.9v-4.3c0-1.4,0-2.8-.3-4.1-.2-1.4-.4-2.7-.7-4.1-.2-1.1-.5-2.1-.8-3.2-.5-1.6-1-3.1-1.6-4.6-1-2.5-2.1-4.8-3.6-7.1-1.2-1.9-2.4-3.7-3.8-5.4-.7-.9-1.5-1.7-2.2-2.6-.6-.7-1.4-1.3-2-2-1.2-1.2-2.4-2.4-3.6-3.6-1.5-1.4-2.9-2.9-4.4-4.3-1.8-1.8-3.5-3.5-5.3-5.3-1.3-1.3-2.6-2.6-3.9-3.9-2.2-2.2-4.4-4.3-6.6-6.5-1.7-1.7-3.4-3.4-5-5-1.3-1.3-2.7-2.6-4-3.9-.9-.9-1.8-1.7-2.7-2.6-1.2-1.2-2.4-2.3-3.5-3.5-1.3-1.3-2.7-2.7-4-4l-6-6c-1.2-1.1-2.3-2.3-3.5-3.4,0,0-.3-.2-.4-.3,0,0-.2,0-.3.2-5.3,5.2-10.5,10.4-15.8,15.6h0ZM1922.5,161.1c.3-.2.6-.5.8-.7,1.4-1.4,2.8-2.8,4.2-4.1,1.3-1.3,2.6-2.5,3.9-3.8,2.3-2.3,4.6-4.6,7-6.9,1.6-1.5,3.2-3.1,4.7-4.6,1.1-1.1,2.2-2.2,3.3-3.3.8-.7,1.5-1.5,2.3-2.2.2-.2.4-.4.6-.6-.2-.2-.3-.4-.5-.6-8.7-8.6-17.4-17.1-26.1-25.7,0,0,0,0-.2,0-.3,0-.5.4-.7.6-.8.8-1.6,1.7-2.5,2.5-1.6,1.5-3.1,3-4.7,4.6-2.4,2.3-4.7,4.7-7.1,7-1.6,1.6-3.2,3.2-4.9,4.8-1,1-2,2-2.9,2.9-1.1,1.1-2.2,2.2-3.3,3.2-.2.2-.5.5-.7.8,0,.1.2.2.3.3,8.8,8.6,17.5,17.3,26.3,25.9h.2,0ZM1868.7,161.4c-.2.2-.4.4-.6.6-1,.9-1.7,2.1-2.4,3.2-.6,1-1,2.1-1.5,3.2-.6,1.4-.9,3-1,4.5s0,3,.2,4.4c.2,1.5.6,2.8,1.2,4.2.9,2.2,2.1,4.2,3.8,5.9,1.2,1.2,2.5,2.3,3.9,3.1,1.7,1,3.6,1.7,5.5,2.2,1.1.3,2.3.4,3.4.5,2,.1,3.9-.1,5.9-.7,1-.3,2-.6,2.9-1,1.9-.8,3.6-2,5.1-3.4,0-.1.2-.3.3-.4,0-.3-.3-.5-.4-.6-.9-.9-1.7-1.7-2.6-2.6-1.7-1.6-3.3-3.2-5-4.9-1.4-1.4-2.9-2.8-4.3-4.3-.8-.8-1.7-1.7-2.5-2.5-1.7-1.7-3.5-3.4-5.2-5.1-2.1-2-4.1-4.1-6.2-6.1,0,0-.2-.2-.5-.2h0ZM1949.3,187.8c.3.5.7.9,1.2,1.2,1.9,1.5,3.9,2.6,6.2,3.4.5.1.9.3,1.4.4,1.5.3,3.1.6,4.6.5h.2c1.2.1,2.5-.2,3.7-.4.5-.1,1-.2,1.5-.4,1.1-.4,2.1-.7,3.1-1.2,1.5-.8,2.9-1.7,4.2-2.9,1.1-1,2.1-2.1,3-3.3,1-1.4,1.8-2.9,2.3-4.5.5-1.5.8-3,1-4.6.2-2.6,0-5.1-1-7.6s-2.1-4.7-4-6.5c-.2-.2-.3-.3-.6-.5-4.3,4.2-8.5,8.4-12.8,12.6-4.7,4.6-9.3,9.1-13.9,13.7-3.1,3.1-3.1,3.1,0,.1h0ZM1895.5,81.8s-.2-.3-.3-.4c-1-.9-2-1.8-3.2-2.4-1.6-.9-3.2-1.6-5-2.1-1-.2-1.9-.4-2.9-.5-2.7-.2-5.4,0-8,.9-2,.7-3.9,1.7-5.6,3-1.9,1.5-3.5,3.2-4.7,5.3-.6,1.1-1.1,2.3-1.6,3.5-.6,1.6-.9,3.2-1,4.9,0,1.3,0,2.6.2,4,.2.8.3,1.7.5,2.5,0,.5.3.9.5,1.3.9,2.3,2.1,4.3,3.8,6.1.2.2.3.4.6.4.5-.3.8-.8,1.3-1.2,1.4-1.4,2.8-2.8,4.3-4.2,2.1-2.1,4.2-4.1,6.3-6.2,1.2-1.2,2.5-2.4,3.7-3.7,1.8-1.8,3.7-3.6,5.5-5.5,1.6-1.6,3.3-3.3,5-4.9,0-.2.5-.4.6-.8h0ZM1976.1,108.2c.2-.2.4-.3.5-.4.6-.7,1.1-1.3,1.7-2,1.1-1.4,1.8-3,2.4-4.6s.9-3.3,1-5c0-2.5-.2-4.9-1-7.3-.6-1.8-1.5-3.5-2.7-5-1.8-2.3-4-4.2-6.7-5.6-2.1-1.1-4.4-1.7-6.8-1.9-2.1-.2-4.3,0-6.4.5-1.5.4-2.9.9-4.2,1.6-1.4.7-2.6,1.6-3.8,2.6-.3.3-.7.5-.8.8v.2c8.8,8.7,17.5,17.3,26.3,26,.2,0,.3,0,.4,0h0Z"/>
  <path class="cls-3" d="M2034.6,246.9h-226.8V23.1h226.8v223.8h0ZM1815.8,239.8l.2-209.2,212-.4v209.3l-212.2.3h0Z"/>
  <path class="cls-3" d="M1816.8,239.7"/>
  <g>
    <path class="cls-2" d="M461.6,164.3c-2.1-5.1-5.6-8.9-10.3-11.5-4.9-2.7-10.3-3.7-15.8-4-2.4-.1-4.9,0-7.3.1-3.6.3-7.1.7-10.6,1.4-5.3,1.1-10.5,2.7-15.5,4.7-4.1,1.6-8,3.5-11.8,5.6-2.3,1.3-4.6,2.5-6.7,4-4.2,2.7-8.4,5.6-12.3,8.8-3.3,2.7-6.6,5.5-9.7,8.4-2.4,2.3-4.8,4.7-7,7.1-2.4,2.6-4.7,5.3-6.9,8-2.7,3.3-5.3,6.8-7.7,10.3-3,4.3-5.7,8.8-8.2,13.5-.2.4-.3.6-.8.3-4.6-2.7-8.9-5.6-13.1-8.8-3.7-2.8-7.2-5.9-10.6-9-2.6-2.4-5-5-7.4-7.6-.6-.6-1.2-1.3-1.7-1.9-2.5-3-5-6-7.6-9-2.1-2.5-4-5.1-6-7.7-1.9-2.4-3.4-5.1-5.3-7.6-2.7-3.5-4.9-7.3-7.3-10.9-1.5-2.2-2.8-4.6-4.2-6.8-2.9-4.5-5.5-9.1-8-13.8-2.6-4.9-4.6-10.2-7.9-14.8-1.2-1.7-2.5-3.4-4.3-4.6-1.7-1.1-2.7-.7-3.4,1.2-.6,1.6-.7,3.3-.8,4.9-.1,2.4.1,4.8.5,7.1.5,2.8,1,5.7,1.9,8.4,1.1,3.5,2.4,6.9,3.8,10.3.9,2.3,1.8,4.6,3,6.8,1.3,2.3,2.5,4.6,3.9,6.8,1.8,3,3.6,6.1,5.4,9.1,2,3.2,4.3,6,6.6,9,1.9,2.4,3.9,4.7,5.8,7,1.6,1.9,3.2,3.8,4.8,5.7h-.2c-1.8-1.5-3.6-2.9-5.3-4.5-3.4-3.2-6.7-6.5-10.1-9.7-3.9-3.6-7.6-7.5-11.5-11.2-2.4-2.3-4.6-4.7-7.4-6.6-1.7-1.1-3.2-1.9-4.8-.4v2.8s.2.1.2.2c.1,1.8.8,3.4,1.4,5.1,1,3,2.6,5.8,4.2,8.6,3,5.2,6.7,10.1,10.8,14.5,2.1,2.3,4.2,4.6,6.6,6.6,3,2.7,6.2,5.3,9.3,7.9,3.9,3.2,8,6,12.2,8.9,1.3.9,2.7,1.7,4,2.6-1.5-.2-2.8-.9-4-1.6-3.8-1.9-7.5-3.9-11.3-5.8-2.5-1.3-5-2.4-7.4-3.8-5.2-3-10.3-6.2-15.4-9.2-1-.6-1.9-1.3-3-1.6s-2.2.1-2.4,1.1c-.1.7-.2,1.4,0,2.1,1.2,3.5,3,6.7,5.6,9.4,2.2,2.3,4.4,4.5,6.8,6.5,2.1,1.8,4.3,3.6,6.6,5.1,3.5,2.4,7.2,4.6,10.9,6.7,3.4,2,6.8,4,10.4,5.4,4.7,1.8,9.3,4.1,14.2,5.7-1.1.2-2.3,0-3.4-.2-3.5-.8-7.1-1.3-10.7-2-4-.7-7.9-1.8-11.8-2.7-2.6-.6-5.2-.9-7.9-.9s-1.8.8-1.8,1.8c-.1,1.8,1.1,2.8,2.2,3.7,3.3,2.7,7,4.9,10.8,6.9,2.6,1.4,5.4,2.6,8.2,3.6,1.1.4,2.3.8,3.4,1,2.5.5,5,1.1,7.5,1.6,2.3.5,4.7,1.1,7,1.4,2.2.3,4.5.5,7,.7-1,.3-1.8.5-2.6.9-.9.4-1.4,1.3-1.4,2.1s.5,1.5,1.5,1.9c3.4,1.3,6.8,2.5,10.4,3.2.5,0,.9.2.8.9,0,.7-.2,1.3-.2,2,0,3.8,0,7.5.4,11.2.3,3,.8,6,1.5,8.9,1.2,4.9,2.9,9.6,5.4,14,2.5,4.5,5.6,8.5,9.5,12,3.7,3.3,7.8,5.8,12.2,7.7,6.3,2.8,13,3.9,19.8,4.3,4.6.2,9.2,0,13.8-.7,3.6-.6,7.2-1.4,10.7-2.4,6.3-1.9,12.3-4.5,18.1-7.6,3-1.6,6-3.3,8.8-5.2,4.9-3.2,9.5-6.6,14-10.3,3.1-2.6,6-5.3,8.9-8,1.6-1.5,3.1-3.1,4.5-4.7.9-1,1.7-2.1,2.6-3.1.3-.4.3-.7,0-.9-1.5-1.1-2.7-2.5-4-3.8s-.5-.4-.9,0c-2.5,2.1-5,4.2-7.5,6.2-2.2,1.8-4.4,3.7-6.7,5.4-3.3,2.5-6.7,5-10.2,7.2-4.3,2.7-8.8,5.1-13.5,7-5.6,2.2-11.5,3.3-17.5,3.5-1.8,0-3.6-.2-5.4-.3-2.8-.3-5.4-.8-8.1-1.7-4.7-1.4-8.9-3.7-12.6-7-3.1-2.7-5.4-6.1-7.2-9.8-2.1-4.6-3-9.4-3.2-14.4-.1-3,0-6,.4-8.9.1-1.2.4-2.4.6-3.6,0-.3.1-.4.5-.5,2.3-.4,4.6-.9,6.9-1.4,5.6-1.4,11.2-2.9,16.6-4.6,4-1.3,8.1-2.7,12-4.2,5.1-1.9,10.1-4,15-6.3,3.6-1.7,7.2-3.5,10.7-5.5,3.3-1.8,6.6-3.8,9.7-5.9,4.4-2.9,8.6-6,12.6-9.5,3.1-2.7,6.1-5.6,8.8-8.6,2.9-3.2,5.6-6.6,7.9-10.4,2.2-3.5,4.3-7.1,6-10.8,2-4.4,3.3-9,3.6-13.7.3-4.8.2-9.6-1.7-14.2v-.6ZM385.1,245.8c1.2-.8,2.4-1.6,3.6-2.5,2.5-1.8,5-3.6,7.3-5.7,1.7-1.6,3.7-2.9,5.4-4.6.4-.4,1.1-.9.6-1.5s-1.1-.2-1.7.2c-2.5,1.8-5,3.6-7.6,5.2-3.2,2-6.3,4.1-9.6,5.8-3.4,1.8-6.8,3.5-10.3,5.1-2.8,1.3-5.8,2.2-8.6,3.5-3.9,1.8-8,3.1-12.1,4.4-3.5,1.1-7,1.8-10.6,2.5-2.7.5-5.5.9-8.2,1-3.2.2-6.5,0-9.7.1-1.4,0-2.9-.3-4.4-.4.1-.2.4-.3.6-.3,2.2-.1,4.4-.2,6.6-.4,2.6-.3,5.2-.4,7.8-.9,1.7-.4,3.5-.4,5.3-.7,2.8-.5,5.6-1,8.3-2,.5-.2.9-.5,1.2-.9-.5-.4-1-.4-1.7-.4-2,.2-4,.6-6,.9-2.2.3-4.4.7-6.6,1-1.2.2-2.5.3-3.7.4-4.3.4-8.7.7-13,.6-1,0-2-.1-3-.5,1.9-.5,3.7-.8,5.6-.9,3.2-.3,6.4-.4,9.6-.8,2.2-.3,4.4-.4,6.6-.6,1.8-.2,3.7-.6,5.5-1,8-2,15.9-4.1,23.7-6.9.6-.2,1.2-.6,1.9-.8.5-.2.6-.5.4-.9-.1-.4-.5-.7-.9-.6-2.6.7-5.2,1.3-7.7,2.1-1.8.6-3.7.9-5.6,1.3-3.4.7-6.7,1.4-10.1,2-2.2.4-4.4.7-6.6,1.1-3,.4-5.9.6-8.9.9-3.6.3-7.3.5-10.9.3-2.7-.1-5.4-.3-8.1-.4-5.1-.1-10-1.1-14.9-2.2-3-.7-6.1-1.3-9-2.3-3.1-1.1-6.3-1.9-9.3-3.8,1.1,0,2.1.5,3,.7,4.3,1.1,8.6,2.3,13,3.1,3.6.7,7.2,1.3,10.8,1.8,1.8.3,3.7.2,5.5.5,2.8.4,5.6.5,8.4.8,3.3.4,6.7.4,10.1.2,2.4-.1,4.8,0,7.2-.4.7-.1,1.5-.3,1.5-1s-.8-.7-1.3-.9c-.3-.1-.7-.1-1-.1h-10.5c-3.4,0-6.8-.6-10.3-.6s-4.2-.3-6.3-.6c-3.6-.5-7.1-.9-10.6-1.6-5.6-1-11.1-2.5-16.4-4.3-.8-.3-1.5-.6-2.3-1.1,1.4-.3,2.5.3,3.6.6,2.9.7,5.8,1.1,8.7,1.7,3,.7,6.1,1.2,9.2,1.8,1.7.3,3.4.4,5.1.7,1.8.2,3.6.5,5.5.8,1.2.2,2.4,0,3.6.2,2.5.3,5,.5,7.5.7,4.2.3,8.4.5,12.7.3,2.7,0,5.5-.2,8.2-.4,2-.1,4.1-.7,6.1-1,1.7-.3,3.4-.6,5.1-1,.6-.1,1.1-.4,1.6-.6.4-.2.1-.6.2-.9,0-.4-.3-.3-.5-.3-1.7-.2-3.3.3-5,.5-1.5.2-3,.3-4.5.5-3.3.6-6.6.5-9.9.4-3.4,0-6.8-.2-10.2-.6-5-.6-9.8-1.7-14.6-3.3-3.2-1.1-6.5-2-9.7-3.1-4.5-1.6-9-3.2-13.3-5.3-2.8-1.3-5.7-2.6-8.4-4.1-5.2-2.7-10.1-5.8-14.8-9.3-1.9-1.4-3.8-3-5.3-4.9,3.3,2.1,6.5,4.3,9.8,6.4,4.1,2.7,8.5,4.7,12.8,6.8,3.4,1.6,6.9,3.1,10.3,4.6,5.9,2.5,11.8,5,18.1,6.6,3.6.9,7.1,2,10.7,2.8,1,.3,2.1.5,3.1.7.5,0,1,0,1.2-.6.2-.5-.1-.8-.6-1-1.4-.7-2.9-1.1-4.4-1.5-4.8-1.3-9.5-2.9-14.2-4.5-4.9-1.7-9.7-3.7-14.5-5.8-4.5-2-9.1-4.2-13.5-6.5-4.5-2.4-8.8-5.1-12.8-8.3-1.3-1.1-2.7-2.1-4-3.2,1.3.4,2.3,1.3,3.4,1.9,2.7,1.6,5.4,3.2,8.2,4.8,2.8,1.6,5.6,3.2,8.5,4.6,5.2,2.3,10.1,5,15.5,6.8,3.5,1.2,6.7,2.9,10.2,4,6.6,2.1,13.1,4.2,19.7,6.1,3.6,1.1,7.3,1.8,11,2.5.7.1,1.5,0,2.2-.2.4-.1.7-.4.7-.8s-.3-.5-.7-.6c-1.7-.7-3.6-1-5.3-1.5-4.5-1.2-9-2.7-13.4-4.2-3.6-1.3-7.2-2.8-10.6-4.4-3.6-1.7-7.1-3.7-10.4-5.9-3.7-2.5-7.4-4.8-11-7.3-3.2-2.2-6.5-4.5-9.6-6.9-3.3-2.6-6.5-5.4-9.8-8.1-3.2-2.6-6.1-5.6-9.2-8.3-4.8-4.3-8.2-9.6-11.7-14.9-.2-.3-.3-.6-.4-.9v-.3c1.3,1.4,2.3,2.9,3.5,4.4,1.2,1.4,2.3,2.8,3.5,4.2,1.9,2.2,3.9,4.2,6,6.2,2.7,2.6,5.6,5.1,8.4,7.5,3.7,3.1,7.6,6.1,11.4,9.2,3.1,2.5,6.2,4.9,9.6,7,2.9,1.8,5.6,3.9,8.5,5.6,2.4,1.4,4.9,2.8,7.3,4.2,1.3.7,2.6,1.4,4,1.7.2,0,.4,0,.7.1.3,0,.6,0,.7-.2.2-.3-.2-.5-.3-.6-1.1-1.2-2.5-2.1-3.9-2.8-3.8-2.1-7.2-4.9-10.8-7.3-3.2-2.1-6.3-4.2-9.3-6.5-2.7-2.1-5.5-4.1-8.1-6.3-2.5-2.1-5-4.2-7.5-6.3-1.1-.9-2.1-2-3.3-3-2.9-2.3-5.3-5.1-7.8-7.8-2.8-3-5.4-6.1-8-9.2-.7-.8-1.3-1.7-1.7-2.7.3-.1.4,0,.5.1,1.3,1.2,2.6,2.4,3.9,3.7,2.9,2.8,5.9,5.6,8.8,8.4,1.5,1.4,2.8,2.9,4.4,4.2,3.2,2.9,6.4,5.8,9.7,8.6,2.3,2,4.5,4.1,6.8,6,2.9,2.3,5.9,4.6,8.9,6.8,3.4,2.4,6.6,5,10,7.3,3.1,2.1,6.2,4.1,9.5,5.8,2.2,1.1,4.4,2.5,6.6,3.6,3.1,1.4,6.3,2.5,9.5,3.8,1.7.7,3.4,1.2,5.1,1.9.1,0,.3.2.5.2.5,0,1.2.3,1.3-.6.1-.7-.4-1-.9-1.2-3.5-1.5-7.1-3-10.5-4.8-5.4-2.8-10.5-6.1-15.5-9.6-3-2.1-5.9-4.4-8.8-6.7-3.2-2.6-6.1-5.4-9-8.2-2-2-4.1-3.9-6.1-6-2.4-2.5-4.8-4.9-7.1-7.5-4.7-5.4-9.4-10.8-13.2-17-1.9-3.1-4-6.2-5.7-9.5-1.3-2.4-2.7-4.8-3.9-7.2-2.3-4.8-4-9.9-5.5-15.1-.6-2-1.2-3.9-1.7-5.9-.2-.7-.4-1.4-.2-2.3,1.3,3.7,2.7,7.3,4.2,10.8,1,2.3,2.3,4.6,3.5,6.8s2.4,4.3,3.6,6.5c1.1,2.2,2.6,4.2,3.8,6.4,1.7,3,3.4,6,5.4,8.9,2.8,4.2,5.7,8.3,8.9,12.2,2.3,2.8,4.6,5.6,7.1,8.2,2.9,3.1,5.9,6.2,8.9,9.2s1.9,2.4,3,3.3c1.8,1.5,3.5,3.1,5.5,4.3.3.2.6.6,1.1.2.4-.4.1-.8,0-1.2-.4-.9-1.1-1.7-1.8-2.4-2.6-2.6-5.3-5.1-7.9-7.8-2.7-2.7-5-5.6-7.4-8.5-2.2-2.8-4.5-5.5-6.7-8.3-3.5-4.6-6.8-9.4-9.8-14.3-3.1-5.1-5.8-10.4-8.7-15.6-2.8-5.1-5-10.4-7.1-15.8-.6-1.6-1.4-3.2-1.9-4.9v-.6c1.2,1.3,1.8,2.9,2.5,4.5,1.2,2.9,2.8,5.7,4.3,8.5,1.7,3.2,3.5,6.3,5.4,9.4,1.8,3,3.5,6.1,5.4,9.1,1.7,2.8,3.4,5.5,5.1,8.2,2.7,4.1,5.6,8.1,8.6,12,1.8,2.3,3.3,4.8,5.2,7,1.8,2.1,3.4,4.3,5.2,6.4,4.8,5.5,10.1,10.6,15.2,15.8,2.2,2.2,4.7,4,7,6,3.7,3.1,7.8,5.7,11.9,8.1,4.3,2.5,8.7,4.7,13.5,6.2,4.3,1.4,8.5,3,13,3.9,2.3.5,4.7.9,7.1,1.2,3.3.4,6.7.4,10,.4s5.3-.4,7.9-.8c3.1-.5,6.1-1.1,9.1-1.9,4.1-1.1,8.1-2.4,12-4,3.2-1.3,6.3-2.7,9.3-4.3,5.5-2.9,10.8-6.2,15.7-9.9,2.3-1.8,4.5-3.6,6.7-5.5.2-.2.5-.3.8-.5-3.9,8.2-36.5,34.3-47,37.6v-.2ZM436.3,183.9c-.9,3.1-2.1,6.2-3.6,9-1.9,3.6-4.2,7.1-6.8,10.3-2.1,2.5-4.2,5-6.6,7.1-4.2,3.9-8.8,7.4-13.7,10.4-1.8,1.1-3.7,2.3-5.6,3.2-5.1,2.4-10.3,4.3-15.8,5.5-2.7.6-5.4,1-8.1,1.3-3.2.3-6.4.5-9.6.3-1.7,0-3.5,0-5.2-.5,1.3-3.4,2.5-7,4-10.4,1.7-4.1,3.6-8.2,5.6-12.1,3.2-6.2,6.8-12.3,10.8-18,2.6-3.6,5.3-7.2,8.2-10.5,2.6-2.9,5.2-5.8,8.1-8.4,4.6-4.2,9.5-7.9,15.2-10.5,3-1.4,6.1-2.3,9.4-2.7,2.5-.3,4.8-.1,7.2.8,2.7,1.1,4.6,3,6,5.5,1.2,2.3,1.8,4.7,2.1,7.3.5,4.3-.2,8.3-1.4,12.4h-.2Z"/>
    <path class="cls-2" d="M385.1,31.4v5.6c0,.6.1.8.7.7h2.7c.5,0,.6,0,.6.6,0,.9.3,2.1-.1,2.7-.4.6-1.6.2-2.5.2q-1.4,0-1.4,1.4c0,1.6-.4,3.4,2.1,3.6,4.4,2.4,5,8.5,2,11.7-2.3,2.6-5.2,3.4-8.3,2.3-2.7-.9-4.7-3-5.1-5.9-.6-4,1.2-7,5-8.6.5-.2.6-.4.6-.8,0-1.2.4-2.7-.2-3.4-.5-.7-2.1-.2-3.3-.2s-.9-.2-.8-.8v-2.1c0-.5.2-.7.7-.7h2.9c.5,0,.6,0,.6-.6v-5.5h3.6l.2-.2Z"/>
    <path class="cls-2" d="M380.1,95.6c0-1.5-.3-2.9-.5-4.3-.1-1.1-.3-2.3-.5-3.4,0-.3,0-.5.3-.6,1.8-1.4,3.4-3,5.1-4.5,1.4,1.5,3.1,2.9,4.4,4.6.3.3.4.6.4,1-.2,2.1-.4,4.2-.8,6.3v1.2c.9-.8,1.6-1.7,2.7-2.2,1.5-.8,3.1-1,4.7-.3,1.4.6,1.8,1.8,2.1,3.1.5,2.5,0,4.8-.8,7.2-.5,1.5-1,2.9-1.8,4.2-.3.6-.7,1-1.5.9h-3.4c.6-1.6,1.2-3.1,1.3-4.8,0-.9.1-1.8-1-2.2-1.1-.3-1.8.4-2.3,1.1-1.6,2.5-1.4,6.4,1.7,8.1,2.3,1.2,5.5,1,7.7-.7,2.1-1.6,3-4,3.7-6.4.4-1.6.7-3.3,1-4.9,0-.4,0-.7-.5-.6h-1c-1.3,0-1.4,0-1.3-1.3,0-1,.2-2,.4-2.9,0-.4.5-.4.8-.4,2.3,0,2.2,0,2.5-2.4.2-2.2.7-4.4,1-6.6,0-.4.2-.5.5-.5h3.7c.7,0,.7.3.6.7-.2,1.4-.5,2.8-.7,4.2-.2,1.4-.5,2.7-.7,4.1,0,.5,0,.9.7.8h.5c1.4,0,2,.7,1.7,2,0,0-.2.2-.2.4,0,.7.2,1.7-.4,2s-1.5,0-2.2,0c-.8,0-1,0-1.1,1-.2,1-.2,2.1-.3,3.1,0,2.7.2,5.5,2.2,7.6,1.3,1.3,3,1.8,4.9,1.7,1.6,0,3.1-.5,4.4-1.6,1.8-1.5,3.2-5,1.8-7.4-.3-.6-.7-1-1.4-.9-.6,0-1.3.4-1.5,1.1-.4,1.1-.3,2.3-.2,3.5v.2c.4,1.9.1,2.3-1.8,2.3s-1.7,0-2.2-1.7c-.8-2.5-1.2-5.1-1-7.7.1-1.9.6-3.7,2-5.1,2.2-2.1,5.7-2.2,7.8.6.7.9,1.3,1.9,2,3,.4-1.2.4-2.4.4-3.5s.2-2.1,1.4-2.6c2.8-1.4,5.6-2.8,8.7-4.4-.9,2.7-1.8,5.2-2.6,7.7-2.1,6.2-4.2,12.4-6.4,18.6-1.2,3.3-2.4,6.7-3.5,10-.3.8-.7,1.6-.8,2.5-.2.9-.6,1.1-1.5,1.1h-68.8c-.9,0-1.3-.2-1.6-1.1-2.2-6-4.4-12.1-6.7-18.1-2.4-6.6-4.9-13.1-7.3-19.7,0-.2,0-.5-.2-.8,1.3.3,2.3,1,3.5,1.5,2.2,1.1,4.3,2.2,6.4,3.3.6.3.8.6.8,1.3.1,1.5.4,3,.6,4.7.8-1.2,1.1-2.5,1.9-3.5,1.2-1.7,2.3-2,4.5-1.5,3,.7,4.3,2.9,4.8,5.7.6,3.3.2,6.4-1.2,9.5-.2.4-.4.5-.8.4h-2.6c-.8,0-.7-.4-.6-.9.3-1.8.3-3.5-.2-5.2-.2-.8-.8-1.1-1.5-1.2-.6,0-.9.4-1.2,1-1.5,3.7,1,8.5,5.3,8.9,2,.2,3.7,0,5.3-1.4,1.3-1.1,1.9-2.5,2.3-4.1.6-2.5.5-5.1,0-7.6,0-.4-.3-.3-.6-.3h-2.3c-.3,0-.5,0-.6-.5,0-1.1-.2-2.2-.4-3.3-.1-.6,0-.7.5-.7h2.4c-.3-2.4-.6-4.7-.9-7,0-.6-.2-1.2-.4-1.8-.1-.5-.1-.8.5-.7h3.5c.6,0,.7.3.8.8.4,2.8,1,5.5,1.4,8.2,0,.5.3.5.6.5h1q1.6,0,1.8,1.5c0,.5.1,1,.2,1.6q.2,1.4-1.3,1.4h-1.7c.3,1.8.5,3.5.8,5.1.5,2.5,1.1,4.9,3.1,6.8,1.9,1.8,5.4,2.1,7.7.8,2.5-1.4,3.4-3.6,3.3-6.3,0-1.6-1.4-2.9-3.1-2.8-.9,0-1.5.6-1.6,1.6-.1,1.8.5,3.4,1.1,5.1h-4.2c-.5,0-.5-.4-.7-.6-.9-2.6-1.8-5.2-2.2-7.9-.2-1.6-.3-3.1.2-4.7,1-3.1,4.4-3.1,6.5-1.8.8.5,1.5,1.2,2.4,1.9h.3Z"/>
    <path class="cls-2" d="M424.3,88.9v-.4c.5-2.6-1-4.1-2.8-5.6-3.6-3-7.6-5.4-11.8-7.3-4.3-2-8.8-3.6-13.5-4.5-1.5-.3-2.9-.4-4.4-.6-.4,0-.7,0-.8.6-.2,2.3-.5,4.6-.8,6.9-.2,1.7-.4,3.4-.6,5.1,0,.2,0,.4-.2.5-.2,0-.3-.2-.5-.3-1.2-1.2-2.5-2.4-3.7-3.7-.6-.6-.8-.5-1.3,0-1.6,1.6-3.2,3.1-5,4.8-.4-2.9-.8-5.6-1.2-8.3-.3-1.8-.6-3.6-.8-5.4,0-.6-.5-.4-.8-.3-2.7.3-5.3.8-7.9,1.7-5.6,1.9-10.8,4.6-15.6,7.9-2.4,1.6-4.6,3.5-6.8,5.5-.6.6-.9,1.2-.8,2v2c-1.7-.7-3.2-1.4-4.8-2.1-1.2-.5-2.3-1.1-3.4-1.6-.5-.2-.6-.4-.2-.8,4.3-4.8,9.2-9,14.7-12.3,5.6-3.4,11.6-6,18-7.5,2.9-.7,5.8-1.2,8.7-1.4,2.6-.2,5.1-.5,7.7-.4,4.4.3,8.8.7,13.1,1.8,4.3,1.1,8.5,2.5,12.5,4.3,4.4,2,8.5,4.5,12.4,7.4,3,2.3,5.8,4.9,8.3,7.8.4.4.3.6-.2.8-2.5,1.3-5,2.5-7.6,3.7v-.3Z"/>
    <path class="cls-2" d="M409.5,61c0,2-1.6,3.5-3.6,3.6-1.8,0-3.4-1.4-3.5-3.5-.1-1.9,1.7-3.6,3.6-3.6s3.6,1.4,3.5,3.5Z"/>
    <path class="cls-2" d="M414.8,61.3c2,0,3.6,1.7,3.6,3.6s-1.7,3.6-3.6,3.5c-1.7,0-3.5-1.3-3.5-3.5s1.8-3.8,3.5-3.5h0Z"/>
    <path class="cls-2" d="M337.8,71.3c2,0,3.6,1.6,3.6,3.5s-1.7,3.6-3.6,3.6-3.4-1.4-3.5-3.5c0-2,1.8-3.6,3.5-3.5h0Z"/>
    <path class="cls-2" d="M434.2,75.1c.2,1.9-1.7,3.6-3.3,3.6-2.3,0-3.6-1.8-3.7-3.7-.1-1.9,1.7-3.4,3.7-3.4s3.6,1.6,3.3,3.5Z"/>
    <path class="cls-2" d="M364.7,61.3c0,2-1.4,3.5-3.3,3.4-2.4,0-3.5-1.5-3.7-3.4-.2-1.7,1.8-3.7,3.7-3.7s3.7,1.8,3.4,3.6h-.1Z"/>
    <path class="cls-2" d="M420,69.3c-.4-1.7,1.6-3.5,3.3-3.5s3.6,1.4,3.6,3.5-1.7,3.6-3.6,3.7c-1.6,0-3.6-1.8-3.3-3.6h0Z"/>
    <path class="cls-2" d="M353,61.5c2.3,0,3.5,1.6,3.6,3.5,0,1.8-1.7,3.7-3.4,3.6-2,0-3.7-1.7-3.7-3.7s1.6-3.3,3.5-3.3h0Z"/>
    <path class="cls-2" d="M396.8,55.3c1.9-.2,3.5,1.5,3.5,3.4s-1.9,3.8-3.6,3.6c-2-.2-3.5-1.5-3.5-3.7s1.6-3.5,3.5-3.3h.1Z"/>
    <path class="cls-2" d="M348.7,69.9c0,2.1-1.7,3.6-3.4,3.6s-3.5-1.7-3.5-3.6,1.7-3.5,3.5-3.5,3.6,1.8,3.4,3.5Z"/>
    <path class="cls-2" d="M373.6,58.6c.1,1.9-1.4,3.6-3.4,3.6s-3.5-1.6-3.5-3.5,1.3-3.4,3.2-3.4,3.7,1.2,3.7,3.3h0Z"/>
  </g>
  <g>
    <path class="cls-2" d="M48.6,222.8H12.8v-1c11-13.1,17.7-21.9,20-26.4,2.4-4.5,3.5-8.9,3.5-13.2s-1-5.8-2.9-7.8c-1.9-2.1-4.3-3.1-7.1-3.1-4.6,0-8.2,2.3-10.7,6.9l-1.7-.6c1.6-5.7,4.1-10,7.4-12.8s7.1-4.1,11.4-4.1,5.9.7,8.4,2.2c2.5,1.4,4.5,3.4,6,5.9,1.4,2.5,2.2,4.8,2.2,7,0,4-1.1,8-3.3,12.1-3,5.5-9.6,13.3-19.8,23.2h13.2c3.2,0,5.3-.1,6.3-.4,1-.3,1.8-.7,2.4-1.4.6-.6,1.5-2,2.5-4.1h1.6l-3.4,17.6h-.2Z"/>
    <path class="cls-2" d="M98.2,192.4c0,6.1-.9,11.8-2.6,17-1,3.2-2.4,5.9-4.1,8-1.7,2.1-3.7,3.7-5.9,4.9s-4.6,1.8-7.1,1.8-5.6-.7-8-2.2-4.5-3.6-6.3-6.4c-1.3-2-2.5-4.7-3.5-8.1-1.3-4.6-1.9-9.3-1.9-14.2s.9-12.7,2.8-18.2c1.5-4.6,3.8-8.1,7-10.5,3.1-2.4,6.4-3.7,9.9-3.7s6.8,1.2,9.9,3.6c3.1,2.4,5.3,5.7,6.8,9.7,2,5.6,3,11.7,3,18.4h0ZM84.3,192.3c0-10.7,0-16.9-.2-18.6-.3-4.2-1-7-2.2-8.4-.7-1-2-1.4-3.6-1.4s-2.3.4-3.1,1.1c-1.1,1-1.9,2.9-2.2,5.5-.4,2.7-.6,11.9-.6,27.7s.3,14.4.9,17.3c.4,2.1,1.1,3.5,1.9,4.3.8.7,1.9,1.1,3.3,1.1s2.6-.5,3.4-1.4c1.3-1.7,2-4.3,2.2-7.8l.2-19.3h0Z"/>
    <path class="cls-2" d="M138.7,222.8h-35.8v-1c11-13.1,17.7-21.9,20-26.4,2.4-4.5,3.5-8.9,3.5-13.2s-1-5.8-2.9-7.8c-1.9-2.1-4.3-3.1-7.1-3.1-4.6,0-8.2,2.3-10.7,6.9l-1.7-.6c1.6-5.7,4.1-10,7.4-12.8,3.3-2.8,7.1-4.1,11.4-4.1s5.9.7,8.4,2.2c2.5,1.4,4.5,3.4,6,5.9,1.4,2.5,2.2,4.8,2.2,7,0,4-1.1,8-3.3,12.1-3,5.5-9.6,13.3-19.8,23.2h13.2c3.2,0,5.3-.1,6.3-.4,1-.3,1.8-.7,2.4-1.4.6-.6,1.5-2,2.5-4.1h1.6l-3.4,17.6h-.2Z"/>
    <path class="cls-2" d="M148,199.9l28.9-39.2h5.5v39.2h5.6v9.3h-5.6v13.7h-12.4v-13.7h-22.1v-9.3h.1ZM152.3,199.9h17.7v-24l-17.7,24Z"/>
  </g>
</svg>