<?xml version="1.0" standalone="no"?>
<!DOCTYPE svg PUBLIC "-//W3C//DTD SVG 20010904//EN"
 "http://www.w3.org/TR/2001/REC-SVG-20010904/DTD/svg10.dtd">
<svg version="1.0" xmlns="http://www.w3.org/2000/svg"
 width="648.000000pt" height="385.000000pt" viewBox="0 0 648.000000 385.000000"
 preserveAspectRatio="xMidYMid meet">

<g transform="translate(0.000000,385.000000) scale(0.100000,-0.100000)"
fill="#000000" stroke="none">
<path d="M2030 3251 c0 -14 31 -22 54 -15 21 7 21 7 1 15 -28 11 -55 11 -55 0z"/>
<path d="M1905 3238 c-22 -5 -119 -29 -216 -53 -161 -40 -483 -140 -536 -167
-17 -8 -26 -8 -37 1 -8 7 -19 10 -25 7 -16 -10 -40 5 -34 21 5 12 2 13 -13 4
-10 -6 -63 -31 -117 -55 -371 -170 -704 -453 -832 -706 -64 -127 -98 -290 -60
-290 7 0 19 -8 24 -17 6 -10 11 -14 11 -10 0 4 8 3 19 -2 16 -9 19 -5 24 37 9
67 36 154 47 147 13 -8 70 26 63 38 -3 4 1 7 8 6 13 -2 55 17 169 76 25 13 56
24 69 24 35 1 97 -72 113 -134 12 -46 13 -31 18 195 l5 245 375 5 c206 3 371
8 365 11 -5 4 -27 9 -47 13 -24 4 -38 13 -38 21 0 8 -7 15 -15 15 -10 0 -15
10 -15 33 0 26 10 44 41 75 22 23 47 42 55 42 8 0 14 4 14 8 0 4 17 14 38 21
20 8 43 22 50 32 7 11 22 19 32 19 10 0 25 6 32 14 8 7 30 19 51 27 20 7 37
19 37 26 0 7 7 13 15 13 8 0 39 16 70 35 30 20 63 39 73 42 26 10 117 66 120
75 2 4 12 8 23 8 10 0 19 4 19 8 0 4 19 18 43 30 74 40 84 47 79 60 -4 14 -59
14 -117 0z"/>
<path d="M4855 3240 c3 -5 14 -10 23 -10 15 0 15 2 2 10 -20 13 -33 13 -25 0z"/>
<path d="M4936 3204 c21 -15 40 -21 43 -16 4 7 13 5 24 -3 20 -14 6 -32 -15
-19 -7 4 -8 3 -4 -5 4 -7 16 -9 27 -6 21 7 52 -12 44 -25 -3 -5 4 -6 15 -3 12
3 20 0 20 -7 0 -7 7 -10 15 -6 8 3 18 -1 22 -8 5 -7 35 -23 68 -35 151 -57
199 -78 330 -143 161 -80 227 -119 345 -203 73 -51 235 -198 320 -288 27 -28
43 -28 32 1 -5 15 -4 15 11 3 9 -7 14 -18 10 -24 -3 -6 -1 -7 5 -3 6 4 23 -1
37 -10 14 -9 29 -14 32 -10 4 4 -3 9 -15 13 -12 3 -20 9 -17 13 3 5 -11 30
-31 57 -151 201 -476 427 -839 584 -128 55 -415 152 -478 162 l-38 6 37 -25z"/>
<path d="M3860 3069 c-181 -16 -157 -24 78 -24 330 -1 432 -20 625 -117 43
-21 119 -53 170 -70 87 -30 99 -32 232 -31 97 1 168 8 230 21 l90 19 -155 -5
c-184 -6 -204 -1 -401 89 -154 71 -190 85 -279 105 -81 19 -440 27 -590 13z"/>
<path d="M1076 3053 c-3 -7 -2 -13 3 -13 5 0 14 6 20 13 8 10 7 14 -4 14 -8 0
-16 -6 -19 -14z"/>
<path d="M5298 2873 c7 -3 16 -2 19 1 4 3 -2 6 -13 5 -11 0 -14 -3 -6 -6z"/>
<path d="M1375 2574 c15 -66 96 -378 99 -381 1 -2 21 56 43 129 36 121 39 135
26 161 -7 15 -18 27 -24 27 -5 0 -19 8 -30 18 -10 11 -32 25 -47 33 -15 8 -30
18 -34 24 -4 5 -8 6 -8 1 0 -5 -7 -3 -16 5 -13 11 -14 9 -9 -17z"/>
<path d="M785 2551 l-90 -6 -3 -377 -2 -378 55 0 55 0 0 165 0 165 125 0 125
0 0 71 0 72 -125 -7 -125 -8 0 86 0 86 165 0 166 0 -3 68 -3 67 -125 1 c-69 0
-165 -2 -215 -5z"/>
<path d="M4782 2512 c-63 -6 -122 -94 -122 -181 0 -74 60 -145 150 -178 224
-82 250 -99 250 -163 0 -63 -24 -75 -144 -75 -94 0 -106 2 -166 32 -36 17 -65
31 -66 30 -1 -1 -5 -36 -9 -78 l-7 -76 40 -16 c133 -53 337 -46 431 16 101 67
109 241 15 329 -33 31 -109 66 -209 96 -90 28 -133 54 -141 88 -22 88 107 131
249 83 34 -11 72 -27 84 -34 27 -18 33 -5 33 70 l0 54 -177 3 c-98 2 -193 2
-211 0z"/>
<path d="M1557 2503 c-4 -3 -7 -11 -7 -17 0 -6 5 -5 12 2 6 6 9 14 7 17 -3 3
-9 2 -12 -2z"/>
<path d="M3964 2491 c-143 -87 -197 -336 -112 -518 33 -71 112 -145 183 -173
80 -31 216 -34 290 -6 155 59 238 188 238 371 1 140 -47 252 -134 315 l-42 30
-196 0 c-174 0 -199 -2 -227 -19z m341 -85 c81 -48 123 -166 103 -292 -22
-142 -105 -211 -243 -202 -104 6 -160 59 -191 177 -37 148 24 296 141 340 48
17 139 7 190 -23z"/>
<path d="M4175 2375 c-5 -2 -22 -6 -38 -9 -41 -9 -94 -66 -107 -117 -7 -24
-10 -74 -8 -111 8 -104 53 -164 133 -173 22 -3 34 -3 28 1 -7 3 -13 14 -13 24
0 10 -4 21 -10 25 -14 9 -5 116 15 156 23 48 83 82 134 77 38 -3 38 -3 30 26
-9 30 -42 71 -70 87 -18 9 -78 18 -94 14z"/>
<path d="M5910 2435 l0 -75 -110 0 -110 0 0 -315 0 -315 -120 0 -120 0 0 314
0 315 -115 3 -115 3 0 -37 c0 -21 -4 -38 -9 -38 -5 0 -49 19 -98 43 -78 37
-96 42 -160 42 -136 0 -119 -44 35 -91 170 -52 249 -112 278 -212 40 -135 -21
-265 -151 -324 -61 -27 -241 -37 -338 -18 -85 17 -157 54 -157 82 0 55 24 254
31 262 5 6 29 -10 57 -36 29 -28 68 -52 100 -62 65 -22 178 -24 198 -4 27 26
-13 55 -139 102 -131 49 -187 83 -223 135 l-24 36 0 -80 c0 -241 -139 -410
-366 -445 -321 -49 -544 213 -483 568 7 41 8 67 2 73 -7 7 -12 -12 -15 -54 -6
-75 -34 -141 -76 -182 -17 -16 -31 -34 -31 -40 0 -5 42 -86 93 -180 52 -93 92
-173 89 -177 -2 -5 -37 -8 -76 -9 l-72 -1 45 -21 c36 -17 65 -21 150 -22 95
-1 111 -4 164 -30 32 -16 71 -39 87 -52 15 -13 34 -21 41 -18 8 3 21 -2 29
-12 12 -16 12 -17 -1 -7 -9 6 -57 10 -115 10 l-100 -1 0 -138 c0 -77 3 -143 6
-149 3 -5 21 -8 40 -6 33 3 34 4 37 56 3 47 5 52 26 52 17 0 36 -16 65 -55 38
-50 45 -55 81 -55 22 0 40 5 40 10 0 7 7 7 21 0 30 -17 159 -14 201 3 60 25
75 76 36 122 -16 18 -47 32 -100 46 -75 21 -90 30 -67 45 17 10 89 6 121 -7
34 -14 37 -12 48 36 7 30 6 35 -6 31 -8 -3 -14 -1 -14 4 0 16 74 34 141 34 59
0 70 -3 105 -31 21 -16 54 -39 73 -49 59 -33 70 -40 88 -56 10 -9 37 -25 61
-37 39 -20 42 -24 42 -61 0 -22 -4 -40 -10 -40 -5 0 -25 -14 -44 -31 -18 -18
-103 -66 -187 -108 -127 -63 -153 -80 -151 -96 2 -17 1 -17 -8 -5 -7 10 -12
12 -17 4 -5 -6 -17 -11 -28 -11 -76 2 -128 -21 -117 -51 4 -14 -34 -52 -54
-52 -8 0 -10 12 -7 41 7 48 -4 59 -58 59 -42 0 -76 -30 -85 -77 -5 -26 -1 -37
20 -58 23 -23 24 -26 6 -20 -11 3 -20 2 -20 -4 0 -17 -46 -61 -64 -61 -9 0
-16 -4 -16 -8 0 -4 -17 -14 -37 -21 -21 -8 -44 -22 -51 -32 -7 -11 -21 -19
-31 -19 -10 0 -28 -9 -40 -19 -12 -10 -35 -24 -51 -31 -17 -7 -30 -16 -30 -21
0 -5 -4 -9 -9 -9 -11 0 -250 -134 -270 -151 -7 -7 -32 -21 -55 -33 -40 -20
-53 -21 -498 -21 -252 0 -458 -3 -458 -6 0 -8 85 -49 99 -49 5 0 11 -5 13 -11
2 -6 66 -14 163 -19 571 -32 1210 24 1735 151 208 50 371 99 364 110 -3 5 1 7
8 4 7 -3 37 3 65 13 52 18 52 19 29 32 -13 7 -29 9 -35 6 -6 -4 -17 -1 -25 6
-11 12 -8 14 20 14 19 0 40 6 46 13 11 10 9 11 -7 6 l-20 -6 20 10 c11 5 63
26 115 46 134 52 358 161 470 229 275 167 498 393 586 593 41 91 64 197 63
287 0 67 -14 182 -18 152 0 -5 -8 -3 -16 4 -8 7 -15 8 -15 3 0 -4 -17 -17 -37
-28 -21 -11 -40 -23 -43 -26 -9 -12 -65 -37 -97 -44 -18 -3 -35 -11 -38 -16
-22 -35 -75 38 -75 103 0 25 12 65 32 105 27 55 31 74 30 133 -3 96 -34 149
-108 184 -30 14 -59 26 -64 26 -6 0 -10 -33 -10 -75z m-1637 -940 c-6 -52 13
-70 109 -99 111 -34 99 -74 -17 -54 -22 3 -50 9 -62 13 -20 6 -23 4 -23 -19 0
-37 -16 -32 -46 14 l-26 39 26 31 c29 35 33 76 11 106 -21 27 -18 34 9 21 20
-10 22 -17 19 -52z m-111 -1 c14 -9 9 -42 -8 -48 -9 -3 -31 -6 -50 -6 -32 0
-34 2 -34 36 l0 37 42 -7 c22 -4 45 -9 50 -12z m194 -486 c-3 -13 -6 -26 -6
-30 0 -5 -6 -8 -14 -8 -21 0 -25 11 -15 38 5 12 16 22 25 22 12 0 15 -6 10
-22z m734 -318 c0 -5 -2 -10 -4 -10 -3 0 -8 5 -11 10 -3 6 -1 10 4 10 6 0 11
-4 11 -10z"/>
<path d="M1204 2486 c-5 -13 34 -165 152 -599 l27 -98 70 3 71 3 80 243 c44
133 83 242 86 242 3 0 42 -109 86 -242 l80 -243 67 -3 c37 -2 67 -1 67 2 0 3
43 155 95 337 52 181 95 338 95 348 0 15 -10 18 -60 20 -72 2 -59 26 -138
-249 -30 -107 -58 -199 -62 -203 -4 -4 -35 74 -70 175 -34 101 -72 203 -84
228 l-21 45 -60 0 -59 0 -76 -232 c-41 -128 -78 -233 -81 -233 -3 0 -27 75
-53 168 -27 92 -58 196 -70 232 l-21 65 -58 3 c-43 2 -59 -1 -63 -12z"/>
<path d="M2570 2144 l0 -354 70 0 70 0 2 163 3 162 128 3 127 3 0 64 0 64
-127 3 -128 3 -3 83 -3 82 166 0 165 0 0 40 0 41 -235 -1 -235 -1 0 -355z"/>
<path d="M3166 2483 c-3 -8 -6 -167 -6 -354 l0 -339 70 0 70 0 0 140 0 141 72
-3 73 -3 75 -137 75 -137 73 -1 c39 0 72 2 72 5 0 3 -36 72 -80 153 -44 82
-80 151 -80 155 0 4 20 25 44 47 73 68 98 187 57 277 -33 71 -38 73 -288 72
-187 -1 -222 -3 -227 -16z m334 -61 c45 -22 62 -56 57 -111 -8 -79 -64 -110
-199 -111 l-58 0 0 120 0 120 83 0 c58 0 92 -5 117 -18z"/>
<path d="M3350 2315 l0 -65 50 0 c27 0 61 5 75 12 21 9 25 18 25 54 0 53 -16
64 -94 64 l-56 0 0 -65z"/>
<path d="M5290 2460 l0 -40 105 0 105 0 0 -315 0 -315 70 0 70 0 0 315 0 315
105 0 105 0 0 40 0 40 -280 0 -280 0 0 -40z"/>
<path d="M1830 2475 c0 -19 81 -267 86 -263 2 3 15 51 29 108 l26 103 -23 16
c-36 26 -118 51 -118 36z"/>
<path d="M2243 2430 c-21 -44 -126 -382 -179 -578 -36 -133 -35 -132 -97 -133
l-52 -1 35 -15 c79 -34 150 -26 198 24 33 33 75 122 110 233 79 248 92 295 92
339 0 53 -36 136 -60 136 -8 0 -17 9 -20 20 -5 16 -10 12 -27 -25z"/>
<path d="M3100 2400 l0 -40 -165 0 -165 0 0 -30 0 -30 124 0 125 0 3 -112 c2
-62 2 -116 0 -120 -2 -5 -59 -8 -128 -8 l-124 0 0 -155 c0 -85 3 -155 8 -155
20 1 58 33 127 107 58 63 92 90 141 113 l64 31 0 220 c0 120 -2 219 -5 219 -3
0 -5 -18 -5 -40z"/>
<path d="M850 2330 l0 -30 130 0 130 0 0 -120 0 -120 -130 0 -130 0 0 -165 c0
-125 -3 -165 -12 -165 -33 -2 -123 -12 -127 -15 -5 -6 70 -69 93 -78 11 -4 38
-5 60 -1 41 7 115 51 116 70 0 6 11 23 24 37 14 15 33 40 43 57 22 39 106 103
153 118 19 6 47 10 62 8 32 -4 37 -31 -36 239 l-51 190 -163 3 -162 2 0 -30z"/>
<path d="M1627 1935 l-66 -200 -53 -11 -53 -10 40 -27 c55 -38 116 -37 195 3
33 17 66 30 75 30 8 0 15 5 15 10 0 6 7 10 16 10 22 0 14 37 -50 234 l-52 161
-67 -200z"/>
<path d="M3350 1879 l0 -131 25 4 c13 3 26 1 27 -3 2 -5 18 -5 37 1 19 5 49
11 68 12 18 1 33 4 33 6 0 6 -98 199 -113 223 -8 12 -23 19 -44 19 l-33 0 0
-131z"/>
<path d="M2715 1555 c-22 -8 -55 -30 -72 -49 -27 -30 -33 -44 -33 -82 0 -63
25 -100 88 -131 47 -23 61 -25 122 -19 102 9 100 7 100 88 l0 69 -57 -3 c-54
-3 -58 -5 -58 -28 0 -19 6 -26 23 -28 15 -2 22 -9 20 -20 -2 -12 -16 -18 -49
-20 -89 -6 -140 75 -89 141 26 32 75 43 140 30 47 -9 49 -9 55 15 7 30 6 32
-42 43 -54 12 -102 10 -148 -6z"/>
<path d="M3722 1562 c-9 -6 -12 -43 -10 -148 l3 -139 123 -3 122 -3 0 36 0 35
-85 0 c-84 0 -85 0 -85 25 0 23 4 24 63 27 62 3 62 3 62 33 0 30 0 30 -62 33
-55 3 -63 6 -63 22 0 18 7 20 86 20 l85 0 -3 33 -3 32 -110 3 c-60 1 -116 -2
-123 -6z"/>
<path d="M2000 1420 l0 -140 125 0 125 0 0 25 c0 24 -2 24 -82 27 l-83 3 0 30
c0 30 0 30 63 33 58 3 62 4 62 27 0 23 -4 24 -62 27 -57 3 -63 5 -66 26 -3 21
-1 22 77 22 l81 0 0 30 0 30 -120 0 -120 0 0 -140z"/>
<path d="M2280 1420 l0 -140 35 0 35 0 0 88 1 87 82 -88 c73 -78 87 -88 112
-85 l30 3 3 138 3 137 -40 0 -40 0 -3 -82 -3 -82 -70 82 c-64 75 -73 81 -107
82 l-38 0 0 -140z"/>
<path d="M2960 1420 l0 -140 35 0 35 0 0 140 0 140 -35 0 -35 0 0 -140z"/>
<path d="M3090 1420 l0 -140 35 0 34 0 3 87 3 86 75 -86 c70 -81 77 -87 110
-84 l35 2 3 138 3 137 -41 0 -40 0 0 -82 0 -83 -78 83 c-66 71 -81 83 -109 82
l-33 0 0 -140z"/>
<path d="M3430 1421 l0 -138 31 -7 c17 -3 74 -6 125 -6 92 0 94 0 100 26 4 14
3 29 -2 34 -5 5 -45 10 -89 12 -74 3 -80 5 -83 25 -3 20 1 22 60 25 60 3 63 4
66 30 3 27 2 27 -60 30 -57 3 -63 5 -66 26 -3 21 -1 22 82 22 l86 0 0 30 0 30
-125 0 -125 0 0 -139z"/>
<path d="M1390 1101 c-14 -27 -13 -54 2 -49 14 5 30 68 17 68 -5 0 -13 -9 -19
-19z"/>
<path d="M1440 1105 c0 -10 9 -15 26 -15 22 0 25 -3 20 -23 -3 -13 -8 -49 -12
-81 -6 -48 -5 -58 7 -54 9 3 20 34 28 81 14 74 15 76 45 79 59 6 31 23 -41 26
-60 2 -73 0 -73 -13z"/>
<path d="M1595 1029 c-9 -50 -13 -94 -10 -97 11 -11 35 30 35 59 0 30 23 54
44 46 12 -5 14 -17 9 -58 -5 -42 -3 -51 8 -47 8 3 18 27 23 58 9 61 -4 81 -49
72 -23 -4 -25 -2 -19 27 5 24 3 31 -9 31 -11 0 -19 -24 -32 -91z"/>
<path d="M2580 1068 c-22 -105 -24 -138 -7 -138 11 0 18 18 26 68 6 37 14 79
17 95 4 20 2 27 -9 27 -10 0 -19 -18 -27 -52z"/>
<path d="M3512 1108 c-18 -18 -14 -28 8 -28 11 0 20 6 20 14 0 21 -15 27 -28
14z"/>
<path d="M4083 1105 c-3 -9 -3 -19 1 -22 3 -3 2 -11 -3 -17 -16 -19 -32 -129
-21 -140 7 -7 13 -7 20 0 12 12 42 173 34 185 -8 14 -24 10 -31 -6z"/>
<path d="M2781 1078 c-18 -28 -20 -126 -4 -140 7 -5 22 -8 34 -6 29 4 37 28
10 28 -35 0 -24 73 12 85 19 6 20 8 5 12 -10 2 -18 13 -18 24 0 26 -22 24 -39
-3z"/>
<path d="M1784 1060 c-28 -11 -54 -48 -54 -76 0 -39 44 -64 84 -48 26 10 18
23 -16 26 -52 5 -47 28 6 28 44 0 46 1 46 30 0 19 -7 33 -19 40 -22 11 -19 11
-47 0z m36 -35 c0 -9 -9 -15 -25 -15 -24 0 -32 10 -18 23 12 13 43 7 43 -8z"/>
<path d="M1970 1057 c-36 -18 -55 -63 -41 -93 13 -30 33 -38 66 -30 35 9 31
26 -5 26 -26 0 -30 4 -30 28 0 34 16 52 47 52 26 0 31 15 7 24 -19 7 -14 8
-44 -7z"/>
<path d="M2094 1060 c-52 -21 -70 -88 -32 -114 32 -22 55 -20 83 9 32 31 33
78 3 99 -25 18 -25 18 -54 6z m43 -36 c9 -24 -14 -64 -37 -64 -28 0 -35 25
-16 55 19 28 44 33 53 9z"/>
<path d="M2243 1062 c-35 -3 -45 -22 -47 -86 -2 -47 18 -43 28 6 8 43 19 58
45 58 10 0 12 -12 6 -56 -5 -44 -4 -55 6 -52 8 3 18 24 22 49 9 44 20 59 46
59 10 0 12 -12 6 -55 -7 -59 7 -76 25 -29 27 69 2 122 -48 103 -13 -5 -31 -6
-40 -1 -9 4 -32 6 -49 4z"/>
<path d="M2463 1063 c-18 -2 -33 -6 -33 -8 0 -2 -7 -39 -15 -82 -18 -96 -19
-103 -1 -103 8 0 17 15 20 33 6 30 9 33 35 29 22 -3 33 2 50 23 27 35 28 90 2
105 -11 5 -21 9 -23 8 -2 0 -18 -3 -35 -5z m44 -39 c9 -24 -14 -64 -37 -64
-15 0 -20 7 -20 28 0 45 43 72 57 36z"/>
<path d="M2649 1041 c-16 -16 -29 -40 -29 -54 0 -43 48 -69 94 -51 26 10 18
23 -16 26 -49 5 -48 28 1 28 39 0 41 2 41 30 0 19 -7 33 -19 40 -30 15 -40 13
-72 -19z m61 -16 c0 -8 -9 -15 -20 -15 -20 0 -26 11 -13 23 12 13 33 7 33 -8z"/>
<path d="M2900 1057 c-14 -7 -31 -26 -39 -42 -12 -25 -12 -32 0 -54 12 -21 22
-26 54 -26 48 0 59 22 14 27 -50 5 -48 26 3 30 35 2 44 7 46 24 3 23 -21 54
-41 54 -7 0 -23 -6 -37 -13z m41 -32 c0 -5 -9 -11 -21 -13 -20 -3 -27 8 -13
22 10 9 34 3 34 -9z"/>
<path d="M3091 1057 c-35 -17 -53 -66 -38 -98 10 -19 20 -24 52 -24 28 0 41 5
43 16 2 12 -4 15 -28 11 -23 -3 -30 0 -30 12 0 12 10 16 40 16 37 0 40 2 40
28 0 49 -31 64 -79 39z m46 -33 c2 -5 -6 -10 -17 -11 -20 -2 -26 8 -13 21 9 8
26 3 30 -10z"/>
<path d="M3234 1063 c-29 -4 -31 -7 -42 -65 -6 -34 -10 -64 -7 -66 14 -14 34
13 40 52 5 31 12 46 25 49 27 7 31 -1 24 -55 -5 -40 -4 -48 9 -48 16 0 21 11
32 73 4 24 2 44 -6 53 -11 14 -16 14 -75 7z"/>
<path d="M3360 1042 c-48 -49 -33 -112 27 -112 21 0 23 -2 13 -15 -7 -9 -21
-13 -35 -9 -26 7 -44 -14 -24 -27 52 -33 101 11 119 104 7 38 10 70 7 73 -2 3
-21 7 -40 11 -31 5 -40 1 -67 -25z m63 -37 c-4 -45 -45 -60 -51 -18 -3 23 24
56 42 50 6 -2 10 -17 9 -32z"/>
<path d="M3497 1057 c-3 -8 -8 -40 -12 -71 -7 -53 -6 -58 11 -54 15 2 21 18
30 65 6 35 9 65 6 68 -10 10 -30 5 -35 -8z"/>
<path d="M3570 1060 c-10 -6 -30 -112 -23 -122 2 -5 10 -8 18 -8 14 0 19 10
30 68 5 23 12 32 26 32 18 0 19 -5 13 -50 -6 -46 -5 -50 13 -50 16 0 22 9 27
38 9 58 7 92 -6 94 -30 4 -90 3 -98 -2z"/>
<path d="M3716 1039 c-47 -56 -26 -109 43 -109 43 0 52 6 44 26 -3 9 -13 12
-24 9 -10 -4 -24 -3 -31 2 -8 5 1 10 27 13 35 4 40 9 43 33 7 62 -58 79 -102
26z m64 -9 c0 -5 -8 -10 -17 -10 -15 0 -16 2 -3 10 19 12 20 12 20 0z"/>
<path d="M3855 1045 c-54 -53 -16 -140 52 -118 15 5 29 17 31 26 3 14 -2 16
-26 11 -17 -4 -32 -1 -36 5 -5 7 6 11 32 11 52 0 71 40 36 74 -23 23 -61 19
-89 -9z m58 -22 c-7 -2 -19 -2 -25 0 -7 3 -2 5 12 5 14 0 19 -2 13 -5z"/>
<path d="M3985 1057 c-7 -19 -24 -101 -25 -114 0 -7 9 -13 19 -13 16 0 21 10
27 46 5 35 12 47 30 54 38 15 30 38 -12 38 -19 0 -37 -5 -39 -11z"/>
<path d="M4135 1046 c-3 -12 -6 -43 -8 -71 -1 -39 1 -50 13 -50 10 0 18 17 25
50 8 34 17 51 28 53 16 3 17 -2 11 -47 -5 -43 -4 -52 11 -57 22 -9 31 7 39 68
9 65 -2 77 -65 76 -41 -1 -50 -5 -54 -22z"/>
</g>
</svg>
