<svg xmlns="http://www.w3.org/2000/svg" viewBox="0 0 1000 515" height="515" width="1000"><title>LORCH Logo with claim</title><g><polygon points="0 0 0 515 1000 515 1000 0 0 0 0 0" style="fill:#bf3922;"></polygon><polygon points="224.82 277.03 110.82 277.03 110.82 110.82 153.68 110.82 153.68 244.88 224.82 244.88 224.82 277.03 224.82 277.03" style="fill:#fff;"></polygon><path d="M396.69,194q0,39.75-22.77,63.18t-63,23.33q-40.06,0-62.85-23.33T225.34,194q0-40.08,22.77-63.3T311,107.35q40,0,62.85,23.33T396.69,194Zm-56.82,42.08a49.88,49.88,0,0,0,9.27-17.86,87.66,87.66,0,0,0,3-24.33q0-15-3.46-25.46t-9-17a33.74,33.74,0,0,0-13.18-9.71,40.22,40.22,0,0,0-15.4-3,40.92,40.92,0,0,0-15.4,2.91,35.82,35.82,0,0,0-13.17,9.6q-5.6,6.24-9.16,17.3A84.41,84.41,0,0,0,269.88,194q0,14.85,3.35,25.34a50.9,50.9,0,0,0,9,17A34.46,34.46,0,0,0,295.33,246a41.26,41.26,0,0,0,31.48,0,34.92,34.92,0,0,0,13.06-9.94Z" style="fill:#fff;"></path><path d="M509.27,161.72A21.19,21.19,0,0,0,506.7,151q-2.56-4.47-8.82-7a31.35,31.35,0,0,0-10.16-2.12q-5.79-.45-13.5-.45H458.7v44.77h13.18a122.73,122.73,0,0,0,17.19-1,24.6,24.6,0,0,0,11.6-4.58,21.7,21.7,0,0,0,6.48-7.59q2.13-4.23,2.12-11.27ZM576.14,277H523.79l-45.33-60.95H458.7V277H416.06V110.82H488a164.69,164.69,0,0,1,25.34,1.67,55,55,0,0,1,19.87,7.25A42.86,42.86,0,0,1,548,134.26q5.58,8.82,5.58,22.21,0,18.42-8.6,30t-24.33,19.31L576.14,277Z" style="fill:#fff;"></path><path d="M656.68,280.26a103.87,103.87,0,0,1-34.27-5.46A71.27,71.27,0,0,1,578,231.49q-6.13-16.19-6.14-37.4a103.18,103.18,0,0,1,5.92-35.83A76.62,76.62,0,0,1,595,130.68a73.09,73.09,0,0,1,26.79-17.07,99,99,0,0,1,35-6,132.32,132.32,0,0,1,18.87,1.22,125.94,125.94,0,0,1,15.62,3,102.38,102.38,0,0,1,13.52,4.8q6.12,2.56,10.71,4.8v40.3H710.6q-3.14-2.68-7.93-6.36A98.61,98.61,0,0,0,692,148.1a75.16,75.16,0,0,0-13.29-6,47.17,47.17,0,0,0-15.29-2.46,51,51,0,0,0-17.19,2.91,41.06,41.06,0,0,0-15.07,9.38,46.89,46.89,0,0,0-10.72,16.85q-4,10.5-4,25.45,0,15.63,4.35,26.12t11.17,16.52a41,41,0,0,0,15.18,8.82,55.82,55.82,0,0,0,16.52,2.57A52,52,0,0,0,679,245.89a60.15,60.15,0,0,0,14.18-6.37,92.65,92.65,0,0,0,10.15-6.92c3.12-2.46,5.7-4.57,7.7-6.36h4.47V266q-6.25,2.79-11.94,5.24a100.28,100.28,0,0,1-12,4.25,144.07,144.07,0,0,1-15.3,3.57,122.11,122.11,0,0,1-19.64,1.22Z" style="fill:#fff;"></path><polygon points="889.18 277.03 846.32 277.03 846.32 203.8 783.02 203.8 783.02 277.03 740.16 277.03 740.16 110.82 783.02 110.82 783.02 171.65 846.32 171.65 846.32 110.82 889.18 110.82 889.18 277.03 889.18 277.03" style="fill:#fff;"></polygon><path d="M134.38,404.13c16.34,0,23-4.5,23-16.53,0-12.29-8.85-13.9-21.94-16.07-8-1.33-10.79-2.34-10.79-6.61,0-3.43,2.16-5.42,10.79-5.42a32.9,32.9,0,0,1,15.24,3.59l5.19-9c-5.19-3-12.48-4.72-20.7-4.72-15.61,0-21.35,5.65-21.35,15.6,0,12.73,8.77,14.69,21.35,16.67,8.67,1.42,11.57,2.25,11.57,6.57,0,5.27-3.17,6.51-11.67,6.51a35.15,35.15,0,0,1-18.5-5.37l-5.64,8.45c7.16,4.82,15.52,6.38,23.5,6.38Zm41.47-.92h11V374.34c0-8.27,1.52-14.09,13.54-14.09,10.88,0,11.2,5.46,11.2,13.17v29.79H222.5V374.34c0-8.27,1.6-14.09,13.63-14.09,10.93,0,11.11,5.46,11.11,13.17v29.79h11V371.27c0-13.09-2.06-21.95-18.41-21.95-11.56,0-17.4,2.66-19.92,6.24-1.52-3.58-5.19-6.24-15.79-6.24-11.21,0-16.58,2.66-18.73,5.83l-.92-4.59-8.59.64v52Zm121.29-8.44c-8.35,0-10.61-2.66-10.61-7.53,0-7.07,4-9.41,24.66-9.41h2v2.71c0,9.86-4.72,14.23-16,14.23Zm17.68,3.08c1.42,4.45,3.95,5.46,9.31,5.46a24.62,24.62,0,0,0,4.51-.19v-9.5c-4.6,0-5-.74-5-5.56V370.39c0-14.92-3.4-21.07-21.72-21.07-9.87,0-18.55,3.67-22.08,6.15l5.69,8.54a30.3,30.3,0,0,1,15.24-4.41c10.47,0,12.12,2.89,12.3,9.18H310.5c-25.84,0-34.3,4.36-34.3,19.28,0,8.95,3.59,16.07,19.06,16.07,10.84,0,16.57-2.24,19.56-6.28Zm32.24,5.36h11V376.13c0-9.09,3.58-15.06,16.16-15.15V350c-8.91.19-15.34,3-17.49,6.57l-1.1-6-8.59.64v52Zm75.74,0v-9.68h-6.11c-6.75,0-7.3-2.62-7.3-7.08V360.52H422.8v-10H409.39V334.68l-8.58,1.78-1.93,14.1h-9.46v10h9.05v27.54c0,10.56,3.12,15.25,16.15,15.25,1.8,0,6.71,0,8.18-.1Zm63.42.46h11.07l12.08-36.54,12,36.54h11.06l18.09-53.11h-11.2L527,387.79l-12.08-37.23H504.08l-12,37.32-12.44-37.32H468.18l18,53.11ZM588.79,359c11.3,0,12,5.37,12.53,12.9H573.64c.83-7.86,4.22-12.9,15.15-12.9Zm22.86,38.37-5.82-7.62c-4.05,2.94-8.17,5.1-16.58,5.1-11.66,0-15-5.19-15.7-13.45h38.1c.37-16.67-.36-32.09-22.58-32.09-21.44,0-26.13,12.54-26.13,27.49,0,15.11,4.32,27.46,26.31,27.46,10.1,0,16.39-2.29,22.4-6.89Zm32.22,5.93c2.53,0,4.91-.1,5.83-.19v-9.59h-2c-4.87,0-5.65-1.52-5.65-6.11V330.26H631.29v58.5c0,10.87,3.63,14.55,12.58,14.55Zm46.57-9.14c-11.3,0-14-7.11-14-17.58,0-10.24,2.71-16.81,14-16.81,12,0,15.88,4.51,15.88,16.81,0,12.53-4.23,17.58-15.88,17.58Zm-2.44,10c10.88,0,16.52-2.06,19.74-6.19l1.19,5.64,8.41-.83V330.26h-11v24.89c-2.43-3.63-7.44-5.69-18-5.69-18,0-23,11.52-23,27.13,0,15.79,4.92,27.54,22.68,27.54Zm51-59.31h11v-12H739v12Zm.09,58.39h10.79V350.56H739.12v52.65Zm32.57,0h11V374.34c0-8.27,2.06-14.09,14.09-14.09,10.93,0,11.66,5.46,11.66,13.17v29.79h10.93V371.27c0-13.09-2.57-21.95-18.91-21.95-11.67,0-16.76,2.76-19.28,5.83l-.92-4.59-8.59.64v52Zm90.49-27.63c-9.09,0-12.4-2.62-12.4-8.45s3.31-8.49,12.4-8.49c8.58,0,12.35,2.57,12.35,8.49s-3.22,8.45-12.35,8.45Zm27,28.09c0-11-5.92-14.09-26.21-14.09-7.9,0-9.87-.55-9.87-3.49a4.81,4.81,0,0,1,.91-2.66,49.63,49.63,0,0,0,8.18.59c16.11,0,23.14-5.23,23.14-16.89,0-6.52-2.35-10.15-6.48-12.44H887v-9l-23.59,3.77h-1.24c-16.25,0-23,6.1-23,17.67,0,6.2,2.06,10.61,6.43,13.36a13.2,13.2,0,0,0-2.21,7.39c0,2.94.73,5.46,3.31,7.07-7.72,1.61-10.56,6.2-10.56,12.12,0,10.51,7.35,13,25.75,13,19.38,0,27.27-4.72,27.27-16.39Zm-26.9,7.9c-11.25,0-15.1-1.61-15.1-6.38,0-3.95,1.7-6.75,15.1-6.75,12,0,15.83,1,15.83,5.83s-3,7.3-15.83,7.3Z" style="fill:#fff;"></path></g></svg>