<?xml version="1.0" encoding="UTF-8"?>
<svg version="1.1" xmlns="http://www.w3.org/2000/svg" width="512" height="512">
<path d="M0 0 C168.96 0 337.92 0 512 0 C512 168.96 512 337.92 512 512 C343.04 512 174.08 512 0 512 C0 343.04 0 174.08 0 0 Z " fill="#667999" transform="translate(0,0)"/>
<path d="M0 0 C6.93 0 13.86 0 21 0 C21.721875 2.660625 22.44375 5.32125 23.1875 8.0625 C25.15416917 15.2163806 27.36478368 22.23088688 29.7578125 29.25390625 C31.04914026 33.14819341 32.23135661 37.06052635 33.375 41 C35.30865688 47.66011823 37.29112734 54.30343974 39.3125 60.9375 C39.60116943 61.88729736 39.88983887 62.83709473 40.18725586 63.81567383 C41.84408075 69.25425443 43.52457569 74.68475094 45.2265625 80.109375 C45.59483154 81.28894775 45.96310059 82.46852051 46.3425293 83.68383789 C47.06056711 85.98139878 47.7832277 88.27752116 48.51098633 90.57202148 C48.83607178 91.61430908 49.16115723 92.65659668 49.49609375 93.73046875 C49.93199829 95.11335083 49.93199829 95.11335083 50.37670898 96.52416992 C51 99 51 99 51 103 C51.66 103 52.32 103 53 103 C53.10739502 102.40719238 53.21479004 101.81438477 53.32543945 101.20361328 C54.57114494 94.63022955 56.26851469 88.28066451 58.1875 81.875 C58.82429838 79.72007561 59.4610151 77.56512709 60.09765625 75.41015625 C60.57936279 73.78811279 60.57936279 73.78811279 61.07080078 72.13330078 C62.43583948 67.53033005 63.78154978 62.9218098 65.125 58.3125 C65.39280273 57.3951709 65.66060547 56.4778418 65.93652344 55.53271484 C71.33056998 37.0333308 76.65633779 18.51398157 82 0 C89.59 0 97.18 0 105 0 C105.68835938 2.69736328 105.68835938 2.69736328 106.390625 5.44921875 C107.01025507 7.86202067 107.63005589 10.27477875 108.25 12.6875 C108.70052734 14.45577148 108.70052734 14.45577148 109.16015625 16.25976562 C110.94761038 23.200412 112.91139898 30.0510136 115.05371094 36.88989258 C116.52366007 41.72107989 117.76191162 46.60526132 119 51.5 C120.81017995 58.55008524 122.70871901 65.53131606 124.9296875 72.46484375 C126.74384416 78.45685755 128.31508749 84.51870802 129.89453125 90.57641602 C130.13816406 91.49221436 130.38179687 92.4080127 130.6328125 93.3515625 C130.84824707 94.17479004 131.06368164 94.99801758 131.28564453 95.84619141 C131.97938948 98.25569237 131.97938948 98.25569237 134 101 C134.26627197 100.12077881 134.53254395 99.24155762 134.80688477 98.33569336 C137.21458203 90.38619924 139.62340837 82.43704866 142.03355408 74.48829651 C143.34989157 70.14644649 144.66413036 65.80397003 145.9765625 61.4609375 C149.04159191 51.33453871 152.19204917 41.24168295 155.43286133 31.17016602 C157.82905691 23.66598608 160.02029761 16.11091415 162.13500977 8.52294922 C162.36631592 7.69553223 162.59762207 6.86811523 162.8359375 6.015625 C163.03751465 5.28633789 163.2390918 4.55705078 163.44677734 3.80566406 C164 2 164 2 165 0 C171.6 0 178.2 0 185 0 C182.9745349 7.65738294 180.70370957 15.17302676 178.18701172 22.68188477 C177.63281052 24.34733589 177.63281052 24.34733589 177.06741333 26.0464325 C175.85775863 29.67907135 174.64382175 33.31026238 173.4296875 36.94140625 C172.58418225 39.47672879 171.73888456 42.01211968 170.89382935 44.54759216 C169.12902004 49.84108797 167.36190355 55.13380894 165.59326172 60.42602539 C163.54841374 66.54477788 161.50674389 72.66458346 159.46685207 78.78498989 C157.49968917 84.68708825 155.53081542 90.58861427 153.56097794 96.48982048 C152.72411146 98.99723207 151.88761133 101.50476595 151.05147934 104.01242256 C149.88723061 107.50301073 148.72101255 110.99293442 147.55419922 114.48266602 C147.20717957 115.52417816 146.86015991 116.56569031 146.50262451 117.63876343 C146.18584747 118.58482956 145.86907043 119.53089569 145.54269409 120.50563049 C145.26728727 121.3301751 144.99188046 122.15471972 144.70812798 123.00425053 C144 125 144 125 143 127 C136.4 127 129.8 127 123 127 C118.37002076 112.04052301 114.00316352 97.02677531 109.81884766 81.93701172 C108.38074358 76.77887455 106.89942908 71.63323285 105.42089844 66.48657227 C103.81383725 60.8794187 102.2311681 55.26577246 100.66015625 49.6484375 C100.45642395 48.92074661 100.25269165 48.19305573 100.04278564 47.4433136 C99.0204322 43.79156561 98.00005443 40.13928635 96.98291016 36.48608398 C96.60718967 35.1430403 96.23138001 33.80002155 95.85546875 32.45703125 C95.52184326 31.26053955 95.18821777 30.06404785 94.84448242 28.83129883 C94.11369941 26.08330858 94.11369941 26.08330858 93 24 C92.47806532 25.81218316 91.95759393 27.62478769 91.4375 29.4375 C91.26259033 30.04658203 91.08768066 30.65566406 90.9074707 31.28320312 C89.72312972 35.4236552 88.56420512 39.57040954 87.421875 43.72265625 C84.31978596 54.96895153 81.07604713 66.13919049 77.48950195 77.2409668 C75.06052424 84.76249762 72.80066101 92.32332829 70.60595703 99.91601562 C69.96258439 102.12867835 69.30870946 104.33803312 68.65234375 106.546875 C68.42820801 107.30250732 68.20407227 108.05813965 67.97314453 108.83666992 C67.54943007 110.26424006 67.12471465 111.6915137 66.69873047 113.1184082 C65.33542072 117.72739575 64.16820198 122.32719207 63 127 C56.07 127 49.14 127 42 127 C41.113125 124.710625 40.22625 122.42125 39.3125 120.0625 C38.91091675 119.04168335 38.91091675 119.04168335 38.5012207 118.00024414 C36.95017845 113.92558207 35.63334573 109.81320316 34.43440533 105.6211853 C31.19821812 94.31354165 27.47242046 83.17948733 23.73046875 72.03125 C23.04227766 69.9729632 22.35440199 67.91457091 21.66682434 65.8560791 C19.87588528 60.49642685 18.08158211 55.13790784 16.28625488 49.77972412 C13.39503442 41.14958684 10.50809365 32.51801932 7.6229496 23.885849 C6.61612428 20.87560827 5.6072633 17.86605529 4.59819031 14.85656738 C3.98751223 13.03135383 3.37689767 11.20611903 2.76635742 9.38085938 C2.48433975 8.54154373 2.20232208 7.70222809 1.91175842 6.83747864 C0 1.11362852 0 1.11362852 0 0 Z " fill="#FCFDFD" transform="translate(159,218)"/>
<path d="M0 0 C34.32 0 68.64 0 104 0 C104 5.61 104 11.22 104 17 C76.61 17 49.22 17 21 17 C21 36.47 21 55.94 21 76 C44.1 76 67.2 76 91 76 C91 81.94 91 87.88 91 94 C67.9 94 44.8 94 21 94 C21 121.39 21 148.78 21 177 C14.07 177 7.14 177 0 177 C0 118.59 0 60.18 0 0 Z " fill="#FDFDFD" transform="translate(35,168)"/>
<path d="M0 0 C34.32 0 68.64 0 104 0 C104 5.61 104 11.22 104 17 C76.28 17 48.56 17 20 17 C20 36.47 20 55.94 20 76 C43.43 76 66.86 76 91 76 C91 81.94 91 87.88 91 94 C67.57 94 44.14 94 20 94 C20 121.39 20 148.78 20 177 C13.4 177 6.8 177 0 177 C0 118.59 0 60.18 0 0 Z " fill="#FEFEFE" transform="translate(373,168)"/>
<path d="M0 0 C0.33 0 0.66 0 1 0 C1 13.53 1 27.06 1 41 C-12.53 41 -26.06 41 -40 41 C-36.77794772 39.38897386 -33.66489916 38.09649079 -30.3125 36.8125 C-17.71232801 31.5611525 -8.22889841 22.19948407 -2.96484375 9.59765625 C-1.78548854 6.42246916 -0.80417774 3.28981803 0 0 Z " fill="#000000" transform="translate(511,471)"/>
<path d="M0 0 C1.61102614 3.22205228 2.90350921 6.33510084 4.1875 9.6875 C9.4388475 22.28767199 18.80051593 31.77110159 31.40234375 37.03515625 C34.57753084 38.21451146 37.71018197 39.19582226 41 40 C41 40.33 41 40.66 41 41 C27.47 41 13.94 41 0 41 C0 27.47 0 13.94 0 0 Z " fill="#000000" transform="translate(0,471)"/>
<path d="M0 0 C13.53 0 27.06 0 41 0 C41 13.53 41 27.06 41 41 C39.38897386 37.77794772 38.09649079 34.66489916 36.8125 31.3125 C31.5611525 18.71232801 22.19948407 9.22889841 9.59765625 3.96484375 C6.42246916 2.78548854 3.28981803 1.80417774 0 1 C0 0.67 0 0.34 0 0 Z " fill="#000000" transform="translate(471,0)"/>
<path d="M0 0 C13.53 0 27.06 0 41 0 C37.77794772 1.61102614 34.66489916 2.90350921 31.3125 4.1875 C18.71232801 9.4388475 9.22889841 18.80051593 3.96484375 31.40234375 C2.78548854 34.57753084 1.80417774 37.71018197 1 41 C0.67 41 0.34 41 0 41 C0 27.47 0 13.94 0 0 Z " fill="#000000" transform="translate(0,0)"/>
</svg>
