<?xml version="1.0" encoding="UTF-8"?>
<svg xmlns="http://www.w3.org/2000/svg" viewBox="0 0 481 203">
  <path d="m464.6 0h-34.6a16 16 0 0 0 -16 16h2.52a13.48 13.48 0 0 1 13.48-13.49h34.6a13.51 13.51 0 0 1 13.49 13.49v34.67a13.5 13.5 0 0 1 -13.49 13.49h-.28v2.52h.28a16 16 0 0 0 16-16v-34.68a16 16 0 0 0 -16-16z" fill="#63666b"></path>
  <path d="m42.05 83.23h4.66v84.83h-4.66v-8.49a21.62 21.62 0 0 1 -18.38 9.77c-12 0-23.27-8.61-23.27-25.25 0-17.34 11.75-24.55 23.27-24.55 8.61 0 14.66 3.95 18.38 9.31zm-36.77 60.77c0 13.84 9.08 20.94 18.62 20.94s18.39-7.1 18.39-20.94c0-11.06-6.87-20-18.62-20-9.78 0-18.39 6.71-18.39 20z" fill="#1c4588"></path>
  <path d="m62.53 144.91c0 12.1 8.85 20 18.86 20 7.68 0 13.49-4.54 16.52-10.82l4 2.33c-2.8 5.35-9.08 12.91-20.83 12.91-14.78 0-23.39-10.94-23.39-24.78 0-16.53 11.4-25 23-25 12.8 0 22.46 10.24 22.46 25.37zm35.73-4.43c-1.16-9.42-8.15-16.48-17.57-16.48-9.66 0-16.53 7.33-17.81 16.52z" fill="#1c4588"></path>
  <path d="m118.74 83.23v84.83h-4.66v-84.83z" fill="#1c4588"></path>
  <path d="m171.33 120.59h4.67v47.47h-4.66v-8.49a21.68 21.68 0 0 1 -18.5 9.77c-12.45 0-23.15-9.42-23.15-25 0-14.66 9.3-24.78 23.15-24.78 7.45 0 14 2.91 18.5 9.31zm-36.77 23.41c0 10.7 6.64 20.94 18.62 20.94s18.39-10 18.39-20.94c0-14.09-10.36-20-18.5-20-9.43 0-18.51 7.06-18.51 20z" fill="#1c4588"></path>
  <path d="m194.61 194.83h-4.61v-74.24h4.66v8.26a22.31 22.31 0 0 1 18.62-9.31c14.31 0 23 10.7 23 24.44 0 14-8.85 25.36-23.28 25.36-11.75 0-17-7.44-18.38-9.77zm36.77-50.83c0-13-8.61-20-18.39-20-9.31 0-18.62 6.63-18.62 19.78 0 11.87 6.52 21.18 18.51 21.18s18.5-9.35 18.5-20.96z" fill="#1c4588"></path>
  <path d="m249.07 144.91c0 12.1 8.84 20 18.85 20 7.68 0 13.5-4.54 16.52-10.82l4 2.33c-2.79 5.35-9.08 12.91-20.83 12.91-14.78 0-23.39-10.94-23.39-24.78 0-16.53 11.4-25 23-25 12.8 0 22.46 10.24 22.46 25.37zm35.72-4.43c-1.16-9.42-8.14-16.52-17.57-16.52-9.66 0-16.52 7.33-17.8 16.52z" fill="#1c4588"></path>
  <path d="m300.62 120.59h4.65v7.41a15.87 15.87 0 0 1 14.55-8.49c8.49 0 12.1 5 13.15 6.63 2.09 3.38 2.32 7.8 2.32 12v29.9h-4.65v-29.9c0-3.26-.12-6.87-1.86-9.55-1-1.74-3.61-4.65-9.31-4.65-6.52 0-9.89 3.49-11.64 6.63-2.09 3.73-2.56 8.15-2.56 12.8v24.67h-4.65z" fill="#1c4588"></path>
  <path d="m387.89 120.59h4.65v47.47h-4.65v-8.49a21.69 21.69 0 0 1 -18.5 9.77c-12.45 0-23.16-9.42-23.16-25 0-14.66 9.31-24.78 23.16-24.78 7.44 0 14 2.91 18.5 9.31zm-36.77 23.41c0 10.7 6.63 20.94 18.62 20.94s18.38-10 18.38-20.94c0-14.09-10.35-20-18.5-20-9.43 0-18.5 7.06-18.5 20z" fill="#1c4588"></path>
  <g fill="#63666b">
    <path d="m132.47 79.38a1.36 1.36 0 1 1 -1.35 1.36 1.36 1.36 0 0 1 1.35-1.36zm1 5.54v11.08h-1.92v-11.08z"></path>
    <path d="m137 84.92h2v1.28a3.91 3.91 0 0 1 3.17-1.55 3.76 3.76 0 0 1 3.17 1.52 5 5 0 0 1 .64 3v6.83h-1.98v-6.8a3.27 3.27 0 0 0 -.5-2 2.19 2.19 0 0 0 -1.82-.8 2.43 2.43 0 0 0 -1.94.85 4.65 4.65 0 0 0 -.8 3v5.75h-1.94z"></path>
    <path d="m149.53 84.92h1.92v1.28a3.89 3.89 0 0 1 3.17-1.55 3.78 3.78 0 0 1 3.17 1.52 5 5 0 0 1 .64 3v6.83h-1.92v-6.8a3.21 3.21 0 0 0 -.51-2 2.16 2.16 0 0 0 -1.81-.8 2.42 2.42 0 0 0 -1.94.85 4.65 4.65 0 0 0 -.8 3v5.75h-1.92z"></path>
    <path d="m161.33 90.49a5.87 5.87 0 1 1 5.86 5.81 5.68 5.68 0 0 1 -5.86-5.81zm2 0a3.9 3.9 0 1 0 3.89-4.13 3.83 3.83 0 0 0 -3.92 4.13z"></path>
    <path d="m176.49 84.92 3.31 7.46 3.3-7.46h2.13l-5.43 11.78-5.44-11.78z"></path>
    <path d="m195.71 84.92h1.92v11.08h-1.92v-1.57a4.66 4.66 0 0 1 -3.79 1.87c-2.8 0-5.38-2-5.38-5.86s2.56-5.79 5.38-5.79a4.61 4.61 0 0 1 3.79 1.84zm-7.2 5.52c0 2.37 1.33 4.15 3.63 4.15s3.67-1.94 3.67-4.13a3.74 3.74 0 0 0 -3.67-4.1c-1.9 0-3.63 1.39-3.63 4.08z"></path>
    <path d="m203.19 86.68v9.32h-1.91v-9.3h-1.18v-1.78h1.18v-4h1.91v4h1.92v1.76z"></path>
    <path d="m207.86 79.38a1.36 1.36 0 1 1 -1.36 1.36 1.37 1.37 0 0 1 1.36-1.36zm1 5.54v11.08h-1.96v-11.08z"></path>
    <path d="m211.72 90.49a5.87 5.87 0 1 1 5.86 5.81 5.68 5.68 0 0 1 -5.86-5.81zm2 0a3.9 3.9 0 1 0 3.89-4.13 3.83 3.83 0 0 0 -3.92 4.13z"></path>
    <path d="m226.35 84.92h1.92v1.28a3.91 3.91 0 0 1 3.17-1.55 3.76 3.76 0 0 1 3.17 1.52 5 5 0 0 1 .64 3v6.83h-1.92v-6.8a3.27 3.27 0 0 0 -.5-2 2.19 2.19 0 0 0 -1.82-.8 2.43 2.43 0 0 0 -1.94.85 4.65 4.65 0 0 0 -.8 3v5.75h-1.92z"></path>
    <path d="m248.36 79.38a1.36 1.36 0 1 1 -1.36 1.36 1.36 1.36 0 0 1 1.36-1.36zm1 5.54v11.08h-1.96v-11.08z"></path>
    <path d="m253.37 84.92h1.92v1.28a3.89 3.89 0 0 1 3.17-1.55 3.78 3.78 0 0 1 3.17 1.52 5 5 0 0 1 .64 3v6.83h-1.92v-6.8a3.21 3.21 0 0 0 -.51-2 2.15 2.15 0 0 0 -1.81-.8 2.43 2.43 0 0 0 -1.94.85 4.65 4.65 0 0 0 -.8 3v5.75h-1.92z"></path>
    <path d="m273.46 76.55h1.92v9.65a3.91 3.91 0 0 1 3.17-1.55 3.75 3.75 0 0 1 3.17 1.52 5 5 0 0 1 .64 3v6.83h-1.92v-6.8a3.27 3.27 0 0 0 -.5-2 2.19 2.19 0 0 0 -1.82-.8 2.43 2.43 0 0 0 -1.94.85 4.65 4.65 0 0 0 -.8 3v5.75h-1.92z"></path>
    <path d="m284.57 90.49a5.87 5.87 0 1 1 5.87 5.81 5.68 5.68 0 0 1 -5.87-5.81zm2 0a3.9 3.9 0 1 0 3.9-4.13 3.83 3.83 0 0 0 -3.93 4.13z"></path>
    <path d="m298.91 84.92h1.92v1.28a3.89 3.89 0 0 1 3.17-1.55 3.78 3.78 0 0 1 3.17 1.52 5 5 0 0 1 .64 3v6.83h-1.92v-6.8a3.21 3.21 0 0 0 -.51-2 2.16 2.16 0 0 0 -1.81-.8 2.43 2.43 0 0 0 -1.94.85 4.65 4.65 0 0 0 -.8 3v5.75h-1.92z"></path>
    <path d="m312.63 79.38a1.36 1.36 0 1 1 -1.36 1.36 1.36 1.36 0 0 1 1.36-1.36zm1 5.54v11.08h-1.92v-11.08z"></path>
    <path d="m317.45 84.92h1.92v1.28a3.93 3.93 0 0 1 3.17-1.55 3.78 3.78 0 0 1 3.18 1.52 5 5 0 0 1 .63 3v6.83h-1.91v-6.8a3.28 3.28 0 0 0 -.51-2 2.16 2.16 0 0 0 -1.81-.8 2.44 2.44 0 0 0 -1.95.85 4.71 4.71 0 0 0 -.8 3v5.75h-1.92z"></path>
    <path d="m338.69 84.92h1.92v10.79a7 7 0 0 1 -1.07 4.35 5.36 5.36 0 0 1 -4.42 2 5.48 5.48 0 0 1 -3.94-1.49 5 5 0 0 1 -1.44-3.57h1.89a3.49 3.49 0 0 0 .85 2.29 3.43 3.43 0 0 0 2.67 1.06 3.1 3.1 0 0 0 2.93-1.54 5.15 5.15 0 0 0 .61-2.83v-1.6a4.66 4.66 0 0 1 -3.78 1.87 5.33 5.33 0 0 1 -3.79-1.49 6 6 0 0 1 -1.59-4.37 5.84 5.84 0 0 1 1.59-4.29 5.47 5.47 0 0 1 3.79-1.5 4.62 4.62 0 0 1 3.78 1.84zm-6.07 2.48a4.18 4.18 0 0 0 -1.12 3 4.25 4.25 0 0 0 1.25 3.25 3.61 3.61 0 0 0 4.8 0 4.51 4.51 0 0 0 1.25-3.2 4.36 4.36 0 0 0 -1.17-3.11 3.54 3.54 0 0 0 -2.51-1 3.43 3.43 0 0 0 -2.5 1.06z"></path>
    <path d="m280.27 185.81h1.92v10.79a7 7 0 0 1 -1.07 4.35 5.39 5.39 0 0 1 -4.42 2.05 5.51 5.51 0 0 1 -3.95-1.49 5 5 0 0 1 -1.44-3.57h1.9a3.47 3.47 0 0 0 .85 2.29 3.41 3.41 0 0 0 2.66 1.06 3.09 3.09 0 0 0 2.93-1.54 5.16 5.16 0 0 0 .62-2.83v-1.59a4.69 4.69 0 0 1 -3.79 1.86 5.3 5.3 0 0 1 -3.78-1.49 6 6 0 0 1 -1.6-4.37 5.8 5.8 0 0 1 1.6-4.29 5.42 5.42 0 0 1 3.78-1.49 4.61 4.61 0 0 1 3.79 1.83zm-6.08 2.48a4.22 4.22 0 0 0 -1.12 3 4.28 4.28 0 0 0 1.25 3.25 3.37 3.37 0 0 0 2.38.91 3.24 3.24 0 0 0 2.42-.94 4.46 4.46 0 0 0 1.25-3.19 4.37 4.37 0 0 0 -1.17-3.12 3.55 3.55 0 0 0 -2.5-1 3.43 3.43 0 0 0 -2.51 1.09z"></path>
    <path d="m286 185.81h1.92v1.19a3.06 3.06 0 0 1 2.5-1.46 4.05 4.05 0 0 1 1.71.45l-.91 1.73a2 2 0 0 0 -1.12-.37 1.85 1.85 0 0 0 -1.54.69 4.78 4.78 0 0 0 -.64 3v5.83h-1.92z"></path>
    <path d="m292.68 191.38a5.87 5.87 0 1 1 5.87 5.81 5.68 5.68 0 0 1 -5.87-5.81zm2 0a3.9 3.9 0 1 0 3.89-4.13 3.83 3.83 0 0 0 -3.91 4.13z"></path>
    <path d="m309.42 192.26a3.78 3.78 0 0 0 .53 2.37 2.63 2.63 0 0 0 3.89 0 3.78 3.78 0 0 0 .53-2.37v-6.45h1.92v6.66a4.41 4.41 0 0 1 -1 3.34 4.84 4.84 0 0 1 -6.77 0 4.41 4.41 0 0 1 -1-3.34v-6.66h1.92z"></path>
    <path d="m322 203h-1.92v-17.19h1.92v1.55a4.72 4.72 0 0 1 3.78-1.81c3.46 0 5.38 2.87 5.38 5.86s-1.94 5.78-5.3 5.78a4.68 4.68 0 0 1 -3.86-1.86zm7.19-11.59c0-2.72-1.84-4.16-3.62-4.16a3.84 3.84 0 0 0 -3.68 4.13c0 2.27 1.44 4.11 3.7 4.11s3.6-1.87 3.6-4.08z"></path>
    <path d="m445.54 84.57h-34.61a14.75 14.75 0 0 1 -14.75-14.75v-34.66a14.75 14.75 0 0 1 14.75-14.75h34.61a14.75 14.75 0 0 1 14.75 14.75v34.66a14.75 14.75 0 0 1 -14.75 14.75zm-22.48-36.69a9.64 9.64 0 0 0 -8.26-4.19c-5.18 0-10.47 3.25-10.47 11 0 7.48 5.08 11.35 10.47 11.35a9.7 9.7 0 0 0 8.26-4.39v3.82h2.09v-38.1h-2.09zm-8.26-2.2c5.28 0 8.37 4 8.37 9 0 6.22-4 9.42-8.27 9.42s-8.37-3.2-8.37-9.42c0-5.96 3.87-9 8.27-9zm34.2-1.51v3.71a9.65 9.65 0 0 0 -8.16-4.19c-6.7 0-10.78 5-10.78 11.15 0 7.42 5.28 11.24 10.51 11.24a10.24 10.24 0 0 0 8.43-4.23v3c0 2.2-.21 10.67-8.64 10.67-4.55 0-7.89-2.72-8.26-7.16h-2.2c.26 5.91 4.92 9.15 10.46 9.15 6.7 0 10.73-4.6 10.73-12.66v-20.68zm-8.37 1.51c5.23 0 8.47 4.08 8.47 9 0 5.23-3.3 9.37-8.58 9.37-5 0-8.26-4-8.26-9.16.01-4.89 3.09-9.21 8.38-9.21z"></path>
  </g>
</svg>
