<svg version="1.0" xmlns="http://www.w3.org/2000/svg" width="341.333" height="341.333" viewBox="0 0 256 256">
    <path d="M45.5 1.4c-4.1 1.8-8.3 6.9-9 10.9-.3 1.8-.4 55-.3 118.4.3 114.5.3 115.2 2.4 117.9 1.1 1.5 3.3 3.7 4.8 4.8 2.7 2.1 3.5 2.1 84.6 2.1s81.9 0 84.6-2.1c1.5-1.1 3.7-3.3 4.8-4.8 2.1-2.7 2.1-3.1 2.1-120.6s0-117.9-2.1-120.6c-1.1-1.5-3.3-3.7-4.8-4.8C209.9.5 208.9.5 129.2.3 63.6.1 47.9.3 45.5 1.4zm164 9.1 2.5 2.4v230.2l-2.5 2.4-2.4 2.5H48.9l-2.4-2.5-2.5-2.4V12.9l2.5-2.4L48.9 8h158.2l2.4 2.5z"/>
    <path d="M69 28c-.8 1.4-.8 2.6 0 4 1.1 2 2.1 2 59 2s57.9 0 59-2c.8-1.4.8-2.6 0-4-1.1-2-2.1-2-59-2s-57.9 0-59 2zM69 44c-.8 1.4-.8 2.6 0 4 1.1 2 2.1 2 59 2s57.9 0 59-2c.8-1.4.8-2.6 0-4-1.1-2-2.1-2-59-2s-57.9 0-59 2zM69 60c-.8 1.4-.8 2.6 0 4 1.1 2 2.1 2 59 2s57.9 0 59-2c.8-1.4.8-2.6 0-4-1.1-2-2.1-2-59-2s-57.9 0-59 2zM69 76c-.8 1.4-.8 2.6 0 4 1.1 2 2.1 2 59 2s57.9 0 59-2c.8-1.4.8-2.6 0-4-1.1-2-2.1-2-59-2s-57.9 0-59 2zM69 92c-.8 1.4-.8 2.6 0 4 1.1 2 2.1 2 59 2s57.9 0 59-2c.8-1.4.8-2.6 0-4-1.1-2-2.1-2-59-2s-57.9 0-59 2zM69 108c-.8 1.4-.8 2.6 0 4 1 1.8 2 2 12.8 1.9l11.7-.1 3.4-3.9 3.3-3.9h-15c-14.1 0-15.2.1-16.2 2zM157.3 108c1.4 1.1 2.9 2.9 3.2 4 .6 1.9 1.6 2 13 2s12.5-.2 13.5-2c.8-1.4.8-2.6 0-4-1-1.9-2.1-2-16.7-2h-15.6l2.6 2zM120.9 112.1c-3.7 4-3.7 4-6.8 2.5-3.8-2-9.5-2.1-11.1-.1-.6.8-1.8 3.4-2.5 5.7-1.2 4.2-1.4 4.3-6.1 4.9-8.8 1-10.2 2.8-9 11.4.7 4.4.7 4.4-3.3 6.5-6.9 3.5-7.9 7.9-3 13.5l3.1 3.5-2.4 3.3c-5.2 6.8-4.3 10.9 3.3 14.7 2.6 1.4 3.9 2.6 3.5 3.5-2.9 7.6-.3 13.5 6 13.5 1.9 0 3.4.4 3.4.9s-3.2 7.7-7.1 16c-9.1 19.3-8.6 22.2 3 17.6l6-2.3 1.5 5.3c.9 2.9 2.2 5.8 3 6.5 3.3 2.6 5 .6 11.8-14 3.7-8 6.9-14.9 7.1-15.4.2-.6 1.4-.2 2.7.7 3 2.1 5.9 2.2 8.6.3 2-1.4 2.3-1 8.9 13.6 3.8 8.2 7.5 15.2 8.3 15.6 2.6.9 4.6-1.3 6.6-7.1l1.8-5.6 4.9 2c12.7 4.9 13.2 2.1 3.6-18.1l-7.4-15.5 4-.7c6.6-1.2 8-3.2 7.3-10.4-.6-5.9-.5-6.2 1.7-6.8 3.5-.8 7.7-5.2 7.7-7.9 0-1.2-1.3-4.1-2.9-6.3l-2.9-3.9 2.9-3.9c4.7-6.4 3.3-10.7-4.5-14-3.4-1.4-3.4-1.5-2.4-5.5 1.5-5.9.4-9-3.9-10.7-1.9-.9-4.9-1.4-6.6-1.2-2.8.3-3.1 0-4.6-4.7-1.1-3.4-2.5-5.4-4.3-6.4-2.5-1.4-3.1-1.4-7.7.6l-5.1 2.1-3.9-3.9c-5.2-5.2-8.2-5.2-13.2.2zm15.4 11.4c1.8.5 4 0 6.7-1.4l3.9-2 1.1 4c1.6 5.7 4.1 7.9 9.3 7.9 2.4 0 4.6.2 4.9.5.3.3.1 2.4-.5 4.6-.8 3.5-.7 4.4 1 6.7s4.6 4.4 7.7 5.5c.4.1-.3 2-1.8 4.1-3.3 4.9-3.3 7.1.1 12.1 1.4 2.1 2.2 4 1.7 4.2-.5.2-2.4 1.2-4.2 2.3-4.1 2.5-5.4 5.8-4.1 10.2 1.3 4.8 1.3 4.8-3.6 4.8-5.5 0-9 2.9-10 8.4-.8 4-1 4.1-4.5 2.1-4.3-2.5-8.1-1.9-12.1 2.1l-3.6 3.5-3.5-3.5c-3.9-3.9-7.5-4.6-11.8-2.1-3.6 2-3.8 1.9-5-2.3-1.3-5.1-4-7.3-9.5-8l-4.6-.5.7-4.2c.8-5.4-.6-7.9-5.6-10.5l-4-2.1 2.5-3.7c3.2-4.7 3.2-8.3-.2-12.3-1.5-1.8-2.3-3.4-1.8-3.6 5.4-1.8 10.1-7.3 9.1-10.5-2-6.3-1.9-6.5 3.6-7 5.9-.6 8.3-2.8 9.4-8.4.5-2.7 1-3.4 2.3-2.9 8.2 3.4 10.6 3.1 14.7-1.8l2.9-3.4 3.1 3.3c1.7 1.8 4.3 3.6 5.7 3.9zm-32.2 82.6c1.6 1.6 2.8 2 5.5 1.4 1.9-.3 3.4-.2 3.4.2s-1.8 4.4-3.9 8.8c-3.6 7.5-3.9 7.8-4.6 5.2-.8-3.1-4.3-4.4-7.3-2.8-1.2.6-2.3 1.1-2.6 1.1-.2 0 1.2-3.6 3.1-8 2-4.4 3.8-8 4-8 .2 0 1.2.9 2.4 2.1zm57.3 13.7c-.1.2-1.1-.1-2.2-.7-3.7-2-6.2-1.3-7.6 2l-1.3 3.1-3.5-7.5c-2-4.1-3.9-8.5-4.3-9.7-.6-1.9-.5-2.1 1.3-1.1 2.8 1.5 6.5 1.4 8.8-.3 1.8-1.4 2.1-1 5.5 6.2 2 4.2 3.5 7.8 3.3 8z"/>
    <path d="M118.6 133.6c-7 2.2-14.9 10.3-17 17.4-.9 3-1.6 7-1.6 9 0 15 13 28 28 28s28-13 28-28c0-15.2-13.2-28.2-28.4-27.9-2.3 0-6.3.7-9 1.5zm20.4 9.8c5.9 3.9 8.5 8.9 8.5 16.6 0 7.8-2.6 12.7-8.8 16.8-5.6 3.7-15.3 3.9-21 .3-7.6-4.7-11.1-14-8.8-22.9 1.4-5.1 7.5-11.7 12.3-13.1 5.3-1.6 13.5-.6 17.8 2.3z"/>
    <path d="M129.8 157.1c-4.5 3.9-4.8 4-7.1 2.4-2.8-1.8-5.4-1.1-6.3 1.7-.4 1.5.4 3 3.2 5.9 2.1 2.1 4.5 3.9 5.5 3.9 2.2 0 14.9-11.8 14.9-13.9 0-2.1-1.9-4.1-3.9-4.1-.9.1-3.7 1.9-6.3 4.1zM69 124c-1.7 3.1.4 6 4.3 6 2.7 0 3.5-.5 4.7-3.3.7-1.7 1.5-3.5 1.8-4 .2-.4-1.9-.7-4.7-.7-4 0-5.2.4-6.1 2zM176 122.4c0 .2.7 2 1.5 4 1.3 3.1 2 3.6 5 3.6 4.1 0 6.2-2.8 4.5-6-.8-1.6-2.1-2-6-2-2.8 0-5 .2-5 .4zM68.9 140.1c-1.8 3.4.4 4 2.9.8 2.3-2.8 2.3-2.9.3-2.9-1.1 0-2.5.9-3.2 2.1zM184.8 141c.9 1.6 2.1 2.5 2.5 2.1 1.2-1.2-1-5.1-2.8-5.1-1.2 0-1.1.5.3 3zM185 157.9c-.7 1.4-.7 2.2.1 2.7 1 .6 2.8-1.1 2.9-2.8 0-1.7-2-1.7-3 .1zM68 157.6c0 1.5 2.2 4.4 3 3.9.6-.4.5-1.4-.3-2.5-1.1-1.9-2.7-2.7-2.7-1.4z"/>
</svg>
