<svg version="1.0" xmlns="http://www.w3.org/2000/svg" width="1600" height="1600" viewBox="0 0 1200 1200">
    <path d="M527 267.7c-51.5 3.7-100.7 31.8-129.9 74.3-22.4 32.6-29.5 71.2-19.4 106 1.3 4.7 3.3 10.4 4.3 12.8l1.9 4.2 3.8-1.4c19-7.4 79.7-29.6 80-29.3.2.2-18.3 8.7-41.1 18.8-47.4 21-42.6 17.2-42.6 33.8.1 9.1 1.5 23.9 2.4 24.9.3.2 5.1-3.6 10.8-8.5 32.6-28 62.7-49 83.8-58.5 10.4-4.7 16.3-6.3 24-6.3 6.9 0 8.1.3 13.4 3.5 11.2 6.7 21.7 20.5 31.7 41.5 8.5 17.9 16.9 44.6 16.9 53.8 0 5.9-22.9 22.4-67.7 48.7-5.1 3-8.9 5.7-8.5 6.1.4.3 22.9 9 50 19.1l49.3 18.6 1.4-2.8c3-5.8 12.4-30 16.3-42 6-18.5 8.5-31.6 8-42.7-.2-5.1 0-8.9.4-8.5 1.7 1.7 4.6 11.9 5.3 18.2 1.4 14.2-5.2 43.4-16.8 74.2l-2.6 6.7 13.7 10.6 13.7 10.6 4.9-5.3c18.9-20.6 34.1-48.7 38.8-71.8 2.3-11.1 2.7-28.6.9-37.5-.7-3.3-6.8-23.1-13.6-44s-14.6-45.4-17.4-54.5c-22.2-73.7-29.6-123.2-21.6-146.2.7-2.3 1.2-4.5 1-4.9-.8-1.2-17.8-9.1-27-12.4-12.5-4.6-30-8.3-44.1-9.5-11.6-.9-15.1-1-24.4-.3zm48.3 133.9c5.2 1.7 12.9 9.3 15.3 14.9 1.9 4.7 1.8 13-.3 16.6-3.4 5.7-11.4 7.4-18.8 4-15.9-7.2-21.1-30-8.1-35.7 4.1-1.7 6.3-1.7 11.9.2zM640 349.7c0 1 .7 7.6 1.5 14.8 4.5 38.9 14.1 76.8 28.5 113 4.2 10.5 14.1 31.5 14.9 31.4.3 0 2.4-3.7 4.6-8.2 8.7-17.7 24.8-36.7 39.1-46.2 7.8-5.2 20.6-10.3 29-11.5 23.6-3.4 75.7 2.4 103.5 11.6l4.6 1.5-.5 28.2c-.4 26.8.8 55.3 2.6 62.2.8 2.7.9 2.4 1.6-3 1.4-12.3 6.1-28.6 11.1-38.5 3.7-7.4 6.9-11.6 11.8-15.1 8.8-6.4 14.9-2 21.1 15.1 4.9 13.5 9.9 39 12.1 61 1.3 13.3 1.1 13.3 7 1.3 12-24.1 25.2-35.2 37.2-31 9.3 3.2 26.7 17.1 43.9 34.9 34.7 36.3 54.4 71.1 54.4 96.4 0 9.8-1.8 15.9-6.7 22.8l-3.5 4.9 4.3-.7c9.9-1.6 19-5.8 25.7-11.9l4.5-4.2-.7 5.9c-.9 8.1-5.8 27-10.1 39.5-11.4 32.6-25.7 56.5-45.9 76.7-11.9 11.8-24.2 20.3-38.4 26.4-5.5 2.5-9.9 4.6-9.8 4.8.7.7 17.3-1.9 24.6-3.9 37-10 69.1-45 85.3-92.9 8.3-24.7 10.2-35.1 10.2-57 0-21.1-1.9-30-9.5-45.6-12.3-25.4-30.1-42.7-77.5-75.5-21.5-14.9-38.4-27.5-46.4-34.6-3-2.6-14.7-14.9-26.1-27.3-27.7-30.1-38.4-40.1-54.5-51.2-21.5-14.7-42.8-22.6-71.5-26.4-14.7-1.9-51.7-1.4-71 1l-11.5 1.4-9-4c-35-15.8-67.4-39-84.6-60.6-3.7-4.5-5.9-6.6-5.9-5.5z"/>
    <path d="M482.5 459.3c-4.1 1.4-7.1 2.9-7.2 3.7-.8 5.5-6.4 113.2-5.9 113.7.3.4 3 .8 6 1.1 5 .4 6.1 0 18.4-6.2 7.2-3.7 14-7.5 15-8.4 1.8-1.5 2.2-4.8 4.2-36.2 1.2-19 2.5-39.7 3-46l.8-11.5-4.6-4.7c-2.5-2.6-6-5.4-7.8-6.3-4.5-2.1-13.7-1.8-21.9.8zM442.9 480.2c-16 11-30.6 23.9-39.2 34.6-1.5 1.9-2.7 3.8-2.7 4.4 0 3.3 34.8 35.3 49.8 45.7l3.2 2.2v-47c0-25.9-.2-47.1-.3-47.1-.2 0-5.1 3.2-10.8 7.2zM523.6 486.1c-.7 7.3-3.6 61.8-3.6 67.4v3.6l8.6-6c4.8-3.3 11.5-8.5 15-11.6 5.4-4.8 6.4-6.1 6.4-9 0-3.6-13.8-32.1-21.4-43.9l-4.4-7-.6 6.5zM752.4 516.5c-1.3 7.3-1.1 66.9.4 80.5 3.4 31.8 6.9 55 12.3 81.5 2.6 13 8.1 36.6 9.4 40.2.4 1.2 2.9.2 27-11.1 5-2.3 15.2-7.1 22.7-10.5l13.7-6.3.7-4.1c1.5-8.9 8.7-20.2 18.7-29.3 4.3-4 4.6-4.4 1.7-2.7-13 7.8-26.7 13.3-32.9 13.3-6.4 0-7.3-2-7.2-14.9.2-16.2-4.9-37.8-13.8-58.6l-2.2-5 .5 16c.5 17.2-.6 38.4-2.5 45.8-2.2 8.9-6.7 9.8-11.8 2.4C775 633.1 764 589.4 753.7 514c-.2-1.8-.6-1-1.3 2.5zM442.5 595.2c-17.4 43.8-42.5 96.6-56 117.8-1.2 1.9-4.6 7.3-7.5 12-2.9 4.7-8.4 12.7-12.3 17.9-3.8 5.1-6 8.7-5 8 1-.8 9.3-7 18.3-13.9 21.7-16.4 32.9-24 35.4-24 6.9 0 20.9 10.4 39 29 6.6 6.7 11.2 11.1 10.3 9.7-3.1-4.8-17.5-33.4-22-43.8-9.8-22.6-14.6-41.1-13.2-50.5.7-5.2 4.9-10.4 8.2-10.4 5.5 0 17.1 8.9 28.2 21.5l4.3 5-5-10c-10.9-21.8-15.5-42.1-15.6-68.2-.1-9.5-.1-17.3-.2-17.3 0 0-3.1 7.8-6.9 17.2z"/>
    <path d="M960.4 628.8c0 2.7-1 6.4-2.2 8.7-6.1 11.5-17.1 18.8-46.2 31-6.9 2.9-21.3 9-32 13.5s-25.8 10.8-33.5 14c-15.3 6.3-98.9 45.1-100.4 46.6-.3.2 1.8 2.8 4.6 5.7 9.6 10 19.3 24.5 23.9 35.8 3.1 7.5 2.6 8.9-.6 1.6-1.2-2.8-5.1-9.5-8.6-14.8-8.6-13.1-18.8-22.6-30.8-28.4-14.4-7.1-19.9-7.9-56.1-8-32.9-.2-35.4-.5-42.3-5.4-5.4-3.7-13.2-7.1-16.6-7.1-4.8 0-8 4-7.3 9.3 1.8 13.6 18.6 31.7 38.3 41.2 6.1 3 11.6 6.1 12.4 6.9.7.9 1 1.6.7 1.6-.5 0-23.4-9.9-56.7-24.5-54.6-23.8-56.3-24.5-63.2-24.5-4.7 0-7.7.6-10.9 2.2-3.8 2-18.1 12.6-50.3 37.5-5.9 4.6-7.3 5.3-9.9 4.7-2.7-.6-3.7.1-11.3 7.7-4.6 4.6-8.4 9.1-8.4 10 0 1 1.3 2.9 3 4.2 1.6 1.4 3 3 3 3.5 0 1.7-64.3 64.6-64.8 63.4-.1-.4 5.5-16.9 12.4-36.7 16.1-46.2 15.2-43.5 14.9-43.5-.2 0-9 16.8-19.6 37.2-10.6 20.5-19.8 38.4-20.5 39.8-1.6 3.1-1.8-5.2-1.5-62.5.2-21.5 0-38.7-.3-38.4-.5.5-3.4 13.8-14.6 66.9-7.1 33.9-7.3 34.7-8.2 31.5-.4-1.7-3.3-18.8-6.3-38-3-19.3-10-62.9-15.4-97-11.2-70.1-10.8-69.6-9.1-11 .5 18.1 1.4 52.1 1.9 75.5.6 23.4 1.3 49.7 1.6 58.5l.6 16-4.2-4.5c-2.3-2.5-8.5-9.5-13.8-15.6-42.3-48.9-56.6-65.2-56.8-65-.2.2 19.5 42.8 38.1 82.1 4.8 10.2 6.2 14.1 5.2 14.3-.8.2-19.6-4-41.7-9.3-22.2-5.3-47.1-11.2-55.4-13.1-8.2-2-17.5-4.2-20.5-5-3-.7-5.5-1.2-5.7-1.1-.1.2 2.6 1.5 6 3 9.5 4.1 74.5 31.6 90.2 38.3l14 5.9-9 .7c-5 .4-34.6 1.4-66 2.3-31.4.8-62.8 1.9-70 2.2-14.1.8-14.5.6 7.5 3.2 5.2.6 33.6 4 63 7.5 29.4 3.6 56.8 6.8 60.8 7.2 7.6.7 9.9 2.4 3.3 2.4-3.9 0-167.6 12.7-172.1 13.3-1.4.2 119.5.4 268.5.4 149.1 0 269.9-.2 268.5-.3-1.4-.2-20.7-1.5-43-2.9s-61.4-3.9-87-5.5-53.2-3.4-61.3-3.9c-8.2-.5-15-1.1-15.2-1.3-.3-.2 22.3-6.9 50-14.8s50.3-14.5 50.2-14.6c-.1-.2-5 .1-10.7.7-23.6 2.1-97.5 7.8-97.8 7.4-.2-.2 6.8-5 15.5-10.8 46.6-30.7 72.7-47.8 80.1-52.6 4.5-3 8.2-5.5 8.2-5.7 0-.3-1.5.2-3.2 1-1.8.8-8 3.4-13.8 5.9-5.8 2.5-17.9 7.7-27 11.7-30.4 13.2-46.4 20.2-57 24.7-5.8 2.4-11.8 5.1-13.4 5.9-1.6.8-3.1 1.3-3.3 1.1-.3-.3 42.3-48.5 54.8-62l4.7-5.2 3.4 3.2c1.9 1.8 4 3.3 4.8 3.3 2.2 0 18-13.8 18-15.6 0-.8-.4-2.3-1-3.3-.6-1.2-.5-2.3.3-3.4.7-.9 10-8.6 20.6-17.1 14.1-11.2 20.2-15.6 22-15.5 1.5 0 13.6 5.5 27 12.3 26.8 13.5 25.5 12.3 17.8 16.3-1.4.7.9 2.7 12.9 10.8 8.1 5.5 14.6 10.4 14.6 11-.1 1.8-25.8 7.5-33.8 7.5-15.5 0-21.5 14.8-10.6 26.2 5.6 5.8 11.2 7.3 27.2 7.2 7.4-.1 18.9-.9 25.5-1.8 12.3-1.8 41.3-7.2 44.2-8.3 1-.4 1.4-.2 1 .4-.9 1.4-26.5 9.9-34.8 11.6l-6.4 1.3.3 4.5c.2 2.4 1.4 6.7 2.7 9.6 4.4 9.7 14.1 14.1 28.7 13 4.3-.4 7.8-.5 7.8-.2 0 .2-4.5 1.4-10 2.6-5.5 1.3-10 2.7-10 3.1 0 .5 1.3 3.4 2.9 6.6 3.4 6.7 9.1 12.5 14.4 14.7 5.5 2.3 15.1 2.1 21.7-.4 2.9-1.1 5.5-1.9 5.8-1.7.2.2-2.2 1.9-5.2 3.7-3.1 1.9-5.6 3.7-5.6 4.1 0 .8 9.6 4.5 15.3 5.8 7.2 1.7 18.2 1.2 25-1.1 8.8-2.9 14.7-7 22.9-15.8l7.1-7.6-3.7 5.9c-2.1 3.2-3.5 6.1-3.2 6.3 1 1.1 9.7-2 15.4-5.4 11.2-6.7 23.4-20.9 31.1-36.2 4.2-8.2 10.7-27.8 12-36.1 4.7-29.3-5.2-58.8-27.4-81.8-3-3-5.4-5.7-5.2-5.8.8-.9 36.7-16.4 37.8-16.4.8 0 3.9 1.9 6.9 4.2 31.5 23.8 54 57.8 61.6 93.6.9 4.2 1.9 14.9 2.3 23.7l.6 16 2.2-9.5c6.6-28.4 8.6-54.3 6.3-79.5-1.1-11.2-4.6-28.5-7.4-36.4-.9-2.4-1.5-4.5-1.3-4.7.1-.1 8.6 7.3 18.7 16.6 10.2 9.2 18.6 16.5 18.8 16 .4-1-8.1-22.7-12.8-32.5-2.1-4.5-5.5-10.5-7.4-13.4-2-2.9-3.6-5.6-3.6-6.1 0-.8 12.5 1 24 3.6 13.9 3.1 33.1 10.8 41.5 16.8l3 2.1-2.7-3.5c-3.3-4.4-18.2-18.1-25.6-23.7-3.2-2.4-8.9-6-12.9-8-3.9-2.1-6.9-4.1-6.7-4.5.8-1.3 21.7-7.6 32.3-9.8 13.1-2.6 33.7-3.6 45.8-2.1 7.6.9 21.2 3.9 29.8 6.5 1.1.4-4.3-2.5-12-6.4-15.4-7.6-36.2-15-50.1-17.5-4.9-.9-9-1.8-9.1-1.9-.2-.1 2.2-2.7 5.1-5.8 10.8-11.1 15-22.4 12.2-32.2-2.1-7-3.1-7.6-3.2-1.8z"/>
    <path d="M551.6 647.5c.5 1.7.8 10.9.8 20.5-.1 16-1.5 29.5-4.1 39-.6 2.2 0 1.9 4.7-2.2 7.2-6.3 16.5-10.8 25.6-12.2l7.4-1.1-6-1.8c-10.9-3.2-13.6-6.9-23.7-32.7-4.7-11.9-6-14.6-4.7-9.5z"/>
</svg>
